<svg width="250" height="228" viewBox="0 0 250 228" fill="none" xmlns="http://www.w3.org/2000/svg">
<g id="Character">
<g id="Group 180">
<path id="Vector" d="M250 212.89H237.71V213.096H250V212.89Z" fill="#EBEBEB"/>
<path id="Vector_2" d="M152.109 215.133H144.941V215.339H152.109V215.133Z" fill="#EBEBEB"/>
<path id="Vector_3" d="M234.229 205.235H206.028V205.441H234.229V205.235Z" fill="#EBEBEB"/>
<path id="Vector_4" d="M56.6343 86.1289H231.029V90.4098H52.1803L56.6343 86.1289Z" fill="#E6E6E6"/>
<path id="Vector_5" d="M39.3953 86.1289H217.238L212.784 90.4098H34.9495L39.3953 86.1289Z" fill="#F0F0F0"/>
<g id="Smartphone">
<path id="Vector_6" d="M207.232 227.53H110.892C109.55 227.545 108.219 227.279 106.985 226.751C105.751 226.223 104.641 225.444 103.724 224.463C102.808 223.483 102.106 222.322 101.663 221.055C101.22 219.788 101.045 218.442 101.151 217.104L114.595 13.3126C114.821 10.5048 116.083 7.8815 118.137 5.95402C120.191 4.02654 122.889 2.93305 125.706 2.88671H222.038C223.38 2.8734 224.709 3.13947 225.942 3.66797C227.175 4.19647 228.285 4.97584 229.2 5.95648C230.116 6.93713 230.817 8.09758 231.26 9.36403C231.702 10.6305 231.877 11.9752 231.771 13.3126L218.343 217.104C218.118 219.912 216.855 222.535 214.801 224.463C212.747 226.39 210.049 227.484 207.232 227.53Z" fill="#263238"/>
<path id="Vector_7" d="M227.515 57.6886H215.852C215.528 57.6919 215.207 57.6278 214.91 57.5003C214.612 57.3728 214.344 57.1848 214.123 56.9482C213.902 56.7116 213.732 56.4316 213.625 56.1259C213.518 55.8203 213.476 55.4957 213.501 55.1729L214.664 37.5215C214.729 36.8503 215.039 36.2267 215.536 35.7701C216.032 35.3135 216.679 35.056 217.353 35.047H229.008C229.328 35.0441 229.645 35.1071 229.94 35.2321C230.235 35.3571 230.501 35.5413 230.721 35.7734C230.942 36.0055 231.112 36.2804 231.222 36.5811C231.331 36.8819 231.378 37.2019 231.359 37.5215L230.196 55.1729C230.142 55.8507 229.838 56.4843 229.342 56.9496C228.847 57.4149 228.195 57.6784 227.515 57.6886Z" fill="#263238"/>
<path id="Vector_8" d="M150.921 0H146.657V0.824833H150.921V0Z" fill="#980000"/>
<path id="Vector_9" d="M141.402 0H125.896V0.824833H141.402V0Z" fill="#980000"/>
<path id="Vector_10" d="M205.764 227.53H109.424C108.082 227.543 106.752 227.277 105.519 226.749C104.285 226.221 103.175 225.441 102.259 224.461C101.343 223.48 100.641 222.32 100.197 221.053C99.7535 219.787 99.5782 218.442 99.6824 217.104L113.16 13.3127C113.385 10.5049 114.648 7.88159 116.702 5.95411C118.756 4.02662 121.454 2.93313 124.271 2.88679H220.611C221.948 2.88153 223.271 3.15352 224.497 3.68557C225.723 4.21763 226.826 4.9982 227.735 5.97797C228.644 6.95774 229.341 8.11541 229.78 9.37788C230.219 10.6403 230.391 11.9802 230.287 13.3127L216.875 217.104C216.65 219.912 215.387 222.535 213.333 224.463C211.279 226.39 208.581 227.484 205.764 227.53Z" fill="#980000"/>
<path id="Vector_11" d="M210.136 203.792H108.211C107.449 203.8 106.693 203.649 105.992 203.349C105.291 203.049 104.66 202.607 104.14 202.05C103.619 201.493 103.22 200.833 102.968 200.114C102.716 199.394 102.617 198.63 102.677 197.87L114.381 20.448C114.507 18.8571 115.221 17.3701 116.382 16.2756C117.544 15.1812 119.071 14.5575 120.666 14.5257H222.616C223.378 14.5176 224.134 14.6684 224.835 14.9683C225.536 15.2683 226.167 15.7109 226.687 16.2679C227.208 16.825 227.607 17.4844 227.859 18.204C228.11 18.9237 228.21 19.6879 228.15 20.448L216.446 197.87C216.319 199.465 215.602 200.955 214.435 202.05C213.269 203.145 211.736 203.766 210.136 203.792Z" fill="white"/>
<path id="Vector_12" d="M191.123 14.5254H170.882L121.846 203.792H142.087L191.123 14.5254Z" fill="#FAFAFA"/>
<path id="Vector_13" d="M208.956 14.5254H198.836L149.799 203.792H159.92L208.956 14.5254Z" fill="#FAFAFA"/>
<path id="Vector_14" d="M195.512 145.146L173.505 61.9123C172.916 59.6994 171.475 57.8101 169.496 56.6583C167.517 55.5065 165.162 55.1861 162.947 55.7673L110.884 69.5255L103.939 178.288L189.367 155.712C191.579 155.12 193.467 153.676 194.618 151.697C195.769 149.717 196.091 147.362 195.512 145.146Z" fill="#F0F0F0"/>
<path id="Vector_15" opacity="0.2" d="M162.858 217.883C165.503 215.323 165.707 211.242 163.312 208.767C160.918 206.292 156.832 206.36 154.186 208.919C151.541 211.478 151.338 215.559 153.732 218.035C156.126 220.51 160.212 220.442 162.858 217.883Z" fill="white"/>
<path id="Vector_16" opacity="0.2" d="M174.717 8.37223C174.66 9.0909 174.337 9.76228 173.81 10.255C173.284 10.7478 172.593 11.0264 171.872 11.0364C171.53 11.0375 171.192 10.9677 170.879 10.8317C170.566 10.6956 170.284 10.4962 170.051 10.2459C169.819 9.99569 169.641 9.70001 169.528 9.37754C169.416 9.05507 169.371 8.71278 169.397 8.37223C169.453 7.65287 169.776 6.98041 170.303 6.4873C170.829 5.99419 171.522 5.71618 172.243 5.70802C172.585 5.70701 172.923 5.77673 173.236 5.91278C173.549 6.04883 173.831 6.24825 174.063 6.49852C174.296 6.74878 174.474 7.04445 174.587 7.36692C174.699 7.68939 174.744 8.03168 174.717 8.37223Z" fill="white"/>
<path id="Vector_17" opacity="0.2" d="M173.513 8.37218C173.484 8.76763 173.308 9.13787 173.02 9.40972C172.731 9.68156 172.351 9.83525 171.954 9.8404C171.765 9.8434 171.577 9.80667 171.403 9.73261C171.229 9.65855 171.073 9.54879 170.944 9.41042C170.815 9.27206 170.716 9.10816 170.654 8.92932C170.592 8.75049 170.569 8.56069 170.585 8.37218C170.614 7.97673 170.79 7.6065 171.079 7.33466C171.367 7.06281 171.748 6.90912 172.144 6.90398C172.333 6.90098 172.521 6.9377 172.695 7.01176C172.869 7.08583 173.026 7.19557 173.155 7.33394C173.284 7.47231 173.382 7.6362 173.444 7.81504C173.506 7.99388 173.529 8.18368 173.513 8.37218Z" fill="white"/>
</g>
<path id="Vector_18" d="M148.172 30.1721L7.9694 89.0789C3.56802 90.9281 1.49913 95.9953 3.3484 100.397L36.6949 179.764C38.5442 184.165 43.6113 186.234 48.0127 184.385L188.215 125.478C192.616 123.629 194.685 118.562 192.836 114.16L159.489 34.7931C157.64 30.3917 152.573 28.3228 148.172 30.1721Z" fill="#980000"/>
<path id="Vector_19" opacity="0.1" d="M148.172 30.1721L7.9694 89.0789C3.56802 90.9281 1.49913 95.9953 3.3484 100.397L36.6949 179.764C38.5442 184.165 43.6113 186.234 48.0127 184.385L188.215 125.478C192.616 123.629 194.685 118.562 192.836 114.16L159.489 34.7931C157.64 30.3917 152.573 28.3228 148.172 30.1721Z" fill="black"/>
<path id="Vector_20" opacity="0.2" d="M46.6431 85.5461L19.1912 97.0801C17.0745 97.9695 16.0796 100.406 16.9689 102.523L22.7551 116.295C23.6444 118.411 26.0813 119.406 28.198 118.517L55.6499 106.983C57.7666 106.094 58.7615 103.657 57.8722 101.54L52.086 87.7684C51.1966 85.6517 48.7598 84.6567 46.6431 85.5461Z" fill="white"/>
<path id="Vector_21" opacity="0.4" d="M65.9058 139.984L39.009 151.285C38.2153 151.618 37.8422 152.532 38.1757 153.326L40.2173 158.185C40.5508 158.979 41.4646 159.352 42.2584 159.018L69.1551 147.718C69.9489 147.384 70.322 146.47 69.9885 145.677L67.9469 140.817C67.6134 140.024 66.6995 139.65 65.9058 139.984Z" fill="white"/>
<path id="Vector_22" opacity="0.4" d="M100.9 125.285L74.0031 136.586C73.2094 136.92 72.8363 137.833 73.1698 138.627L75.2114 143.486C75.5449 144.28 76.4587 144.653 77.2525 144.32L104.149 133.019C104.943 132.685 105.316 131.772 104.983 130.978L102.941 126.119C102.607 125.325 101.694 124.952 100.9 125.285Z" fill="white"/>
<path id="Vector_23" opacity="0.4" d="M135.886 110.586L108.989 121.887C108.195 122.22 107.822 123.134 108.156 123.928L110.197 128.787C110.531 129.581 111.445 129.954 112.238 129.621L139.135 118.32C139.929 117.986 140.302 117.072 139.968 116.279L137.927 111.419C137.593 110.626 136.679 110.253 135.886 110.586Z" fill="white"/>
<path id="Vector_24" opacity="0.4" d="M170.88 95.8878L143.983 107.189C143.189 107.522 142.816 108.436 143.15 109.23L145.191 114.089C145.525 114.883 146.439 115.256 147.232 114.922L174.129 103.621C174.923 103.288 175.296 102.374 174.963 101.58L172.921 96.7212C172.587 95.9274 171.674 95.5543 170.88 95.8878Z" fill="white"/>
</g>
</g>
</svg>
