<svg width="151" height="228" viewBox="0 0 151 228" fill="none" xmlns="http://www.w3.org/2000/svg">
<path d="M150.347 212.89H138.057V213.096H150.347V212.89Z" fill="#EBEBEB"/>
<path d="M52.4556 215.133H45.2878V215.339H52.4556V215.133Z" fill="#EBEBEB"/>
<path d="M134.576 205.235H106.375V205.441H134.576V205.235Z" fill="#EBEBEB"/>
<path d="M107.579 227.53H11.2387C9.89649 227.545 8.56602 227.279 7.33196 226.751C6.09791 226.223 4.98731 225.444 4.07094 224.463C3.15457 223.483 2.4525 222.322 2.00941 221.055C1.56633 219.788 1.39195 218.442 1.49739 217.104L14.9422 13.3126C15.1673 10.5048 16.43 7.8815 18.484 5.95402C20.5381 4.02654 23.2363 2.93305 26.0527 2.88671H122.385C123.726 2.8734 125.056 3.13947 126.289 3.66797C127.522 4.19647 128.632 4.97584 129.547 5.95648C130.463 6.93713 131.164 8.09758 131.607 9.36403C132.049 10.6305 132.223 11.9752 132.118 13.3126L118.69 217.104C118.465 219.912 117.202 222.535 115.148 224.463C113.094 226.39 110.396 227.484 107.579 227.53Z" fill="#263238"/>
<path d="M127.862 57.6886H116.199C115.875 57.6919 115.554 57.6278 115.256 57.5003C114.959 57.3728 114.691 57.1848 114.47 56.9482C114.249 56.7116 114.079 56.4316 113.972 56.1259C113.865 55.8203 113.823 55.4957 113.848 55.1729L115.011 37.5215C115.076 36.8503 115.386 36.2267 115.882 35.7701C116.379 35.3135 117.026 35.056 117.7 35.047H129.355C129.675 35.0441 129.992 35.1071 130.287 35.2321C130.582 35.3571 130.847 35.5413 131.068 35.7734C131.288 36.0055 131.459 36.2804 131.568 36.5811C131.678 36.8819 131.725 37.2019 131.706 37.5215L130.543 55.1729C130.489 55.8507 130.185 56.4843 129.689 56.9496C129.193 57.4149 128.542 57.6784 127.862 57.6886Z" fill="#263238"/>
<path d="M51.2678 0H47.0034V0.824833H51.2678V0Z" fill="#980000"/>
<path d="M41.7493 0H26.2424V0.824833H41.7493V0Z" fill="#980000"/>
<path d="M106.111 227.53H9.77048C8.42866 227.543 7.09877 227.277 5.86531 226.749C4.63184 226.221 3.52176 225.441 2.60564 224.461C1.68953 223.48 0.987389 222.32 0.543837 221.053C0.100285 219.787 -0.0749698 218.442 0.0291971 217.104L13.507 13.3127C13.7321 10.5049 14.9948 7.88159 17.0488 5.95411C19.1029 4.02662 21.8011 2.93313 24.6175 2.88679H120.958C122.295 2.88153 123.618 3.15352 124.844 3.68557C126.07 4.21763 127.173 4.9982 128.082 5.97797C128.991 6.95774 129.687 8.11541 130.127 9.37788C130.566 10.6403 130.738 11.9802 130.633 13.3127L117.222 217.104C116.996 219.912 115.734 222.535 113.68 224.463C111.626 226.39 108.927 227.484 106.111 227.53Z" fill="#980000"/>
<path d="M110.483 203.791H8.55798C7.79556 203.8 7.03981 203.649 6.33883 203.349C5.63784 203.049 5.007 202.606 4.4864 202.049C3.9658 201.492 3.56686 200.833 3.31497 200.113C3.06309 199.394 2.96378 198.629 3.02336 197.869L14.7277 20.4475C14.8543 18.8566 15.5676 17.3696 16.7291 16.2751C17.8906 15.1807 19.4174 14.557 21.013 14.5252H122.962C123.725 14.5172 124.481 14.6679 125.182 14.9679C125.883 15.2678 126.513 15.7104 127.034 16.2675C127.555 16.8245 127.954 17.4839 128.205 18.2035C128.457 18.9232 128.557 19.6874 128.497 20.4475L116.793 197.869C116.666 199.464 115.949 200.955 114.782 202.05C113.615 203.145 112.083 203.766 110.483 203.791Z" fill="white"/>
<path d="M91.4702 14.5249H71.2288L22.1924 203.791H42.4339L91.4702 14.5249Z" fill="#FAFAFA"/>
<path d="M109.303 14.5249H99.1824L50.1461 203.791H60.2668L109.303 14.5249Z" fill="#FAFAFA"/>
<path opacity="0.2" d="M63.2045 217.883C65.85 215.323 66.0535 211.242 63.659 208.767C61.2645 206.292 57.1788 206.36 54.5333 208.919C51.8878 211.478 51.6843 215.559 54.0788 218.035C56.4733 220.51 60.559 220.442 63.2045 217.883Z" fill="white"/>
<path opacity="0.2" d="M75.0643 8.37223C75.0068 9.0909 74.6833 9.76228 74.157 10.255C73.6307 10.7478 72.9395 11.0264 72.2186 11.0364C71.877 11.0375 71.539 10.9677 71.2257 10.8317C70.9124 10.6956 70.6307 10.4962 70.3982 10.2459C70.1658 9.99569 69.9877 9.70001 69.8751 9.37754C69.7625 9.05507 69.7179 8.71278 69.7441 8.37223C69.7997 7.65287 70.1227 6.98041 70.6494 6.4873C71.1761 5.99419 71.8683 5.71618 72.5898 5.70802C72.9313 5.70701 73.2694 5.77673 73.5827 5.91278C73.896 6.04883 74.1777 6.24825 74.4102 6.49852C74.6426 6.74878 74.8207 7.04445 74.9333 7.36692C75.0459 7.68939 75.0905 8.03168 75.0643 8.37223Z" fill="white"/>
<path opacity="0.2" d="M73.86 8.37218C73.8312 8.76763 73.655 9.13787 73.3663 9.40972C73.0777 9.68156 72.6976 9.83525 72.3011 9.8404C72.1119 9.8434 71.9242 9.80667 71.7501 9.73261C71.576 9.65855 71.4194 9.54879 71.2904 9.41042C71.1613 9.27206 71.0627 9.10816 71.001 8.92932C70.9392 8.75049 70.9157 8.56069 70.9319 8.37218C70.9607 7.97673 71.1369 7.6065 71.4256 7.33466C71.7142 7.06281 72.0943 6.90912 72.4908 6.90398C72.68 6.90098 72.8677 6.9377 73.0418 7.01176C73.2159 7.08583 73.3725 7.19557 73.5015 7.33394C73.6306 7.47231 73.7292 7.6362 73.7909 7.81504C73.8527 7.99388 73.8762 8.18368 73.86 8.37218Z" fill="white"/>
<path opacity="0.4" d="M36.2325 110.586L9.33578 121.887C8.54202 122.22 8.16891 123.134 8.50242 123.928L10.544 128.787C10.8775 129.581 11.7914 129.954 12.5851 129.621L39.4819 118.32C40.2756 117.986 40.6487 117.072 40.3152 116.279L38.2736 111.419C37.9401 110.626 37.0263 110.253 36.2325 110.586Z" fill="white"/>
<path opacity="0.4" d="M71.2266 95.8878L44.3299 107.189C43.5361 107.522 43.163 108.436 43.4965 109.23L45.5381 114.089C45.8716 114.883 46.7855 115.256 47.5792 114.922L74.476 103.621C75.2697 103.288 75.6428 102.374 75.3093 101.58L73.2677 96.7212C72.9342 95.9274 72.0204 95.5543 71.2266 95.8878Z" fill="white"/>
</svg>
