<svg width="375" height="812" viewBox="0 0 375 812" fill="none" xmlns="http://www.w3.org/2000/svg">
<g clip-path="url(#clip0_805_2233)">
<rect width="375" height="812" rx="32" fill="white"/>
<circle cx="64.6917" cy="536.881" r="409.165" transform="rotate(105 64.6917 536.881)" fill="#980000" fill-opacity="0.75"/>
<circle cx="118.072" cy="625.414" r="312.24" transform="rotate(105 118.072 625.414)" fill="#980000"/>
<path d="M226.045 320.069L186.909 364.181L147.774 320.069C165.69 315.363 181.337 326.101 186.955 332.058C201.659 317.015 219.22 318.146 226.045 320.069Z" fill="white"/>
<path d="M124.135 291L186.909 364.181L249.797 291" stroke="white" stroke-width="8"/>
<path d="M187.034 332.098C181.869 326.677 167.122 316.735 149.452 320.34C140.661 322.135 121.497 331.79 115.167 356.053C108.837 380.317 129.892 404.514 139.013 415.503" stroke="white" stroke-width="8"/>
<path d="M186.966 332.098C192.131 326.677 206.878 316.735 224.548 320.34C233.339 322.135 252.503 331.79 258.833 356.053C265.163 380.317 244.108 404.514 234.987 415.503" stroke="white" stroke-width="8"/>
<path d="M75.836 504L69.86 487.08H73.028L77.228 499.56L81.644 487.08H83.924L88.244 499.728L92.564 487.08H95.564L89.54 504H86.996L82.7 491.784L78.38 504H75.836ZM101.871 504.24C100.543 504.24 99.3993 503.992 98.4393 503.496C97.4793 503 96.7353 502.296 96.2073 501.384C95.6953 500.472 95.4393 499.392 95.4393 498.144C95.4393 496.928 95.6873 495.864 96.1833 494.952C96.6953 494.04 97.3913 493.328 98.2713 492.816C99.1673 492.288 100.183 492.024 101.319 492.024C102.983 492.024 104.295 492.552 105.255 493.608C106.231 494.664 106.719 496.104 106.719 497.928V498.816H98.3193C98.5433 500.912 99.7433 501.96 101.919 501.96C102.575 501.96 103.231 501.864 103.887 501.672C104.543 501.464 105.143 501.144 105.687 500.712L106.527 502.728C105.967 503.192 105.263 503.56 104.415 503.832C103.567 504.104 102.719 504.24 101.871 504.24ZM101.439 494.064C100.559 494.064 99.8473 494.336 99.3033 494.88C98.7593 495.424 98.4313 496.16 98.3193 497.088H104.223C104.159 496.112 103.887 495.368 103.407 494.856C102.943 494.328 102.287 494.064 101.439 494.064ZM113.175 504.24C111.783 504.24 110.751 503.864 110.079 503.112C109.423 502.344 109.095 501.224 109.095 499.752V487.08H112.095V499.608C112.095 501.048 112.703 501.768 113.919 501.768C114.095 501.768 114.271 501.76 114.447 501.744C114.623 501.728 114.791 501.696 114.951 501.648L114.903 504.024C114.327 504.168 113.751 504.24 113.175 504.24ZM122.066 504.24C120.834 504.24 119.762 503.992 118.85 503.496C117.938 502.984 117.234 502.264 116.738 501.336C116.242 500.408 115.994 499.32 115.994 498.072C115.994 496.824 116.242 495.752 116.738 494.856C117.234 493.944 117.938 493.248 118.85 492.768C119.762 492.272 120.834 492.024 122.066 492.024C122.818 492.024 123.562 492.144 124.298 492.384C125.034 492.624 125.642 492.96 126.122 493.392L125.234 495.48C124.818 495.112 124.346 494.832 123.818 494.64C123.306 494.448 122.81 494.352 122.33 494.352C121.29 494.352 120.482 494.68 119.906 495.336C119.346 495.976 119.066 496.896 119.066 498.096C119.066 499.28 119.346 500.216 119.906 500.904C120.482 501.576 121.29 501.912 122.33 501.912C122.794 501.912 123.29 501.816 123.818 501.624C124.346 501.432 124.818 501.144 125.234 500.76L126.122 502.872C125.642 503.288 125.026 503.624 124.274 503.88C123.538 504.12 122.802 504.24 122.066 504.24ZM133.08 504.24C131.864 504.24 130.808 503.992 129.912 503.496C129.016 503 128.32 502.296 127.824 501.384C127.328 500.456 127.08 499.368 127.08 498.12C127.08 496.872 127.328 495.792 127.824 494.88C128.32 493.968 129.016 493.264 129.912 492.768C130.808 492.272 131.864 492.024 133.08 492.024C134.296 492.024 135.352 492.272 136.248 492.768C137.144 493.264 137.84 493.968 138.336 494.88C138.832 495.792 139.08 496.872 139.08 498.12C139.08 499.368 138.832 500.456 138.336 501.384C137.84 502.296 137.144 503 136.248 503.496C135.352 503.992 134.296 504.24 133.08 504.24ZM133.08 501.96C133.976 501.96 134.696 501.64 135.24 501C135.784 500.344 136.056 499.384 136.056 498.12C136.056 496.84 135.784 495.888 135.24 495.264C134.696 494.624 133.976 494.304 133.08 494.304C132.184 494.304 131.464 494.624 130.92 495.264C130.376 495.888 130.104 496.84 130.104 498.12C130.104 499.384 130.376 500.344 130.92 501C131.464 501.64 132.184 501.96 133.08 501.96ZM141.604 504V492.264H144.532V494.064C144.884 493.424 145.372 492.928 145.996 492.576C146.62 492.208 147.34 492.024 148.156 492.024C149.916 492.024 151.068 492.792 151.612 494.328C151.98 493.608 152.508 493.048 153.196 492.648C153.884 492.232 154.668 492.024 155.548 492.024C158.188 492.024 159.508 493.632 159.508 496.848V504H156.508V496.968C156.508 496.072 156.356 495.416 156.052 495C155.764 494.584 155.268 494.376 154.564 494.376C153.78 494.376 153.164 494.656 152.716 495.216C152.268 495.76 152.044 496.52 152.044 497.496V504H149.044V496.968C149.044 496.072 148.892 495.416 148.588 495C148.3 494.584 147.812 494.376 147.124 494.376C146.34 494.376 145.724 494.656 145.276 495.216C144.828 495.76 144.604 496.52 144.604 497.496V504H141.604ZM168.387 504.24C167.059 504.24 165.915 503.992 164.955 503.496C163.995 503 163.251 502.296 162.723 501.384C162.211 500.472 161.955 499.392 161.955 498.144C161.955 496.928 162.203 495.864 162.699 494.952C163.211 494.04 163.907 493.328 164.787 492.816C165.683 492.288 166.699 492.024 167.835 492.024C169.499 492.024 170.811 492.552 171.771 493.608C172.747 494.664 173.235 496.104 173.235 497.928V498.816H164.835C165.059 500.912 166.259 501.96 168.435 501.96C169.091 501.96 169.747 501.864 170.403 501.672C171.059 501.464 171.659 501.144 172.203 500.712L173.043 502.728C172.483 503.192 171.779 503.56 170.931 503.832C170.083 504.104 169.235 504.24 168.387 504.24ZM167.955 494.064C167.075 494.064 166.363 494.336 165.819 494.88C165.275 495.424 164.947 496.16 164.835 497.088H170.739C170.675 496.112 170.403 495.368 169.923 494.856C169.459 494.328 168.803 494.064 167.955 494.064ZM176.115 498.984L175.179 487.08H178.875L177.939 498.984H176.115ZM175.347 504V500.664H178.707V504H175.347ZM188.321 504V487.08H191.393V504H188.321ZM200.159 504.24C197.055 504.24 195.503 502.704 195.503 499.632V494.52H193.247V492.264H195.503V488.76H198.503V492.264H202.055V494.52H198.503V499.464C198.503 500.232 198.671 500.808 199.007 501.192C199.343 501.576 199.887 501.768 200.639 501.768C200.863 501.768 201.095 501.744 201.335 501.696C201.575 501.632 201.823 501.568 202.079 501.504L202.535 503.712C202.247 503.872 201.879 504 201.431 504.096C200.999 504.192 200.575 504.24 200.159 504.24ZM205.194 493.608L203.97 492.648C204.706 491.88 205.138 491.136 205.266 490.416H203.73V487.08H207.09V489.264C207.09 490.096 206.946 490.856 206.658 491.544C206.386 492.216 205.898 492.904 205.194 493.608ZM213.563 504.24C212.571 504.24 211.643 504.12 210.779 503.88C209.915 503.64 209.195 503.296 208.619 502.848L209.387 500.88C209.979 501.28 210.643 501.592 211.379 501.816C212.115 502.024 212.851 502.128 213.587 502.128C214.355 502.128 214.923 502 215.291 501.744C215.675 501.472 215.867 501.12 215.867 500.688C215.867 500.016 215.371 499.584 214.379 499.392L211.979 498.936C209.947 498.552 208.931 497.496 208.931 495.768C208.931 495 209.139 494.336 209.555 493.776C209.987 493.216 210.579 492.784 211.331 492.48C212.083 492.176 212.947 492.024 213.923 492.024C214.755 492.024 215.555 492.144 216.323 492.384C217.091 492.608 217.747 492.952 218.291 493.416L217.475 495.384C217.011 495 216.451 494.696 215.795 494.472C215.155 494.248 214.539 494.136 213.947 494.136C213.163 494.136 212.579 494.272 212.195 494.544C211.827 494.816 211.643 495.176 211.643 495.624C211.643 496.328 212.099 496.76 213.011 496.92L215.411 497.376C216.451 497.568 217.235 497.92 217.763 498.432C218.307 498.944 218.579 499.632 218.579 500.496C218.579 501.664 218.123 502.584 217.211 503.256C216.299 503.912 215.083 504.24 213.563 504.24ZM232.831 504.24C229.727 504.24 228.175 502.704 228.175 499.632V494.52H225.919V492.264H228.175V488.76H231.175V492.264H234.727V494.52H231.175V499.464C231.175 500.232 231.343 500.808 231.679 501.192C232.015 501.576 232.559 501.768 233.311 501.768C233.535 501.768 233.767 501.744 234.007 501.696C234.247 501.632 234.495 501.568 234.751 501.504L235.207 503.712C234.919 503.872 234.551 504 234.103 504.096C233.671 504.192 233.247 504.24 232.831 504.24ZM236.473 489.744V486.816H239.833V489.744H236.473ZM236.665 504V492.264H239.665V504H236.665ZM242.831 504V492.264H245.759V494.064C246.111 493.424 246.599 492.928 247.223 492.576C247.847 492.208 248.567 492.024 249.383 492.024C251.143 492.024 252.295 492.792 252.839 494.328C253.207 493.608 253.735 493.048 254.423 492.648C255.111 492.232 255.895 492.024 256.775 492.024C259.415 492.024 260.735 493.632 260.735 496.848V504H257.735V496.968C257.735 496.072 257.583 495.416 257.279 495C256.991 494.584 256.495 494.376 255.791 494.376C255.007 494.376 254.391 494.656 253.943 495.216C253.495 495.76 253.271 496.52 253.271 497.496V504H250.271V496.968C250.271 496.072 250.119 495.416 249.815 495C249.527 494.584 249.039 494.376 248.351 494.376C247.567 494.376 246.951 494.656 246.503 495.216C246.055 495.76 245.831 496.52 245.831 497.496V504H242.831ZM269.614 504.24C268.286 504.24 267.142 503.992 266.182 503.496C265.222 503 264.478 502.296 263.95 501.384C263.438 500.472 263.182 499.392 263.182 498.144C263.182 496.928 263.43 495.864 263.926 494.952C264.438 494.04 265.134 493.328 266.014 492.816C266.91 492.288 267.926 492.024 269.062 492.024C270.726 492.024 272.038 492.552 272.998 493.608C273.974 494.664 274.462 496.104 274.462 497.928V498.816H266.062C266.286 500.912 267.486 501.96 269.662 501.96C270.318 501.96 270.974 501.864 271.63 501.672C272.286 501.464 272.886 501.144 273.43 500.712L274.27 502.728C273.71 503.192 273.006 503.56 272.158 503.832C271.31 504.104 270.462 504.24 269.614 504.24ZM269.182 494.064C268.302 494.064 267.59 494.336 267.046 494.88C266.502 495.424 266.174 496.16 266.062 497.088H271.966C271.902 496.112 271.63 495.368 271.15 494.856C270.686 494.328 270.03 494.064 269.182 494.064ZM288.682 504.24C285.578 504.24 284.026 502.704 284.026 499.632V494.52H281.77V492.264H284.026V488.76H287.026V492.264H290.578V494.52H287.026V499.464C287.026 500.232 287.194 500.808 287.53 501.192C287.866 501.576 288.41 501.768 289.162 501.768C289.386 501.768 289.618 501.744 289.858 501.696C290.098 501.632 290.346 501.568 290.602 501.504L291.058 503.712C290.77 503.872 290.402 504 289.954 504.096C289.522 504.192 289.098 504.24 288.682 504.24ZM297.752 504.24C296.536 504.24 295.48 503.992 294.584 503.496C293.688 503 292.992 502.296 292.496 501.384C292 500.456 291.752 499.368 291.752 498.12C291.752 496.872 292 495.792 292.496 494.88C292.992 493.968 293.688 493.264 294.584 492.768C295.48 492.272 296.536 492.024 297.752 492.024C298.968 492.024 300.024 492.272 300.92 492.768C301.816 493.264 302.512 493.968 303.008 494.88C303.504 495.792 303.752 496.872 303.752 498.12C303.752 499.368 303.504 500.456 303.008 501.384C302.512 502.296 301.816 503 300.92 503.496C300.024 503.992 298.968 504.24 297.752 504.24ZM297.752 501.96C298.648 501.96 299.368 501.64 299.912 501C300.456 500.344 300.728 499.384 300.728 498.12C300.728 496.84 300.456 495.888 299.912 495.264C299.368 494.624 298.648 494.304 297.752 494.304C296.856 494.304 296.136 494.624 295.592 495.264C295.048 495.888 294.776 496.84 294.776 498.12C294.776 499.384 295.048 500.344 295.592 501C296.136 501.64 296.856 501.96 297.752 501.96ZM137.771 537V520.08H140.771V526.968C141.171 526.328 141.707 525.848 142.379 525.528C143.051 525.192 143.795 525.024 144.611 525.024C147.379 525.024 148.763 526.632 148.763 529.848V537H145.763V529.992C145.763 529.08 145.587 528.416 145.235 528C144.899 527.584 144.371 527.376 143.651 527.376C142.771 527.376 142.067 527.656 141.539 528.216C141.027 528.76 140.771 529.488 140.771 530.4V537H137.771ZM155.674 537.24C154.826 537.24 154.066 537.08 153.394 536.76C152.738 536.424 152.218 535.976 151.834 535.416C151.466 534.856 151.282 534.224 151.282 533.52C151.282 532.656 151.506 531.976 151.954 531.48C152.402 530.968 153.13 530.6 154.138 530.376C155.146 530.152 156.498 530.04 158.194 530.04H159.034V529.536C159.034 528.736 158.858 528.16 158.506 527.808C158.154 527.456 157.562 527.28 156.73 527.28C156.074 527.28 155.402 527.384 154.714 527.592C154.026 527.784 153.33 528.088 152.626 528.504L151.762 526.464C152.178 526.176 152.666 525.928 153.226 525.72C153.802 525.496 154.402 525.328 155.026 525.216C155.666 525.088 156.266 525.024 156.826 525.024C158.538 525.024 159.81 525.424 160.642 526.224C161.474 527.008 161.89 528.232 161.89 529.896V537H159.082V535.128C158.81 535.784 158.378 536.304 157.786 536.688C157.194 537.056 156.49 537.24 155.674 537.24ZM156.298 535.176C157.082 535.176 157.73 534.904 158.242 534.36C158.77 533.816 159.034 533.128 159.034 532.296V531.768H158.218C156.714 531.768 155.666 531.888 155.074 532.128C154.498 532.352 154.21 532.768 154.21 533.376C154.21 533.904 154.394 534.336 154.762 534.672C155.13 535.008 155.642 535.176 156.298 535.176ZM168.274 537L163.186 525.264H166.378L169.642 533.472L173.026 525.264H176.026L170.866 537H168.274ZM183.024 537.24C181.696 537.24 180.552 536.992 179.592 536.496C178.632 536 177.888 535.296 177.36 534.384C176.848 533.472 176.592 532.392 176.592 531.144C176.592 529.928 176.84 528.864 177.336 527.952C177.848 527.04 178.544 526.328 179.424 525.816C180.32 525.288 181.336 525.024 182.472 525.024C184.136 525.024 185.448 525.552 186.408 526.608C187.384 527.664 187.872 529.104 187.872 530.928V531.816H179.472C179.696 533.912 180.896 534.96 183.072 534.96C183.728 534.96 184.384 534.864 185.04 534.672C185.696 534.464 186.296 534.144 186.84 533.712L187.68 535.728C187.12 536.192 186.416 536.56 185.568 536.832C184.72 537.104 183.872 537.24 183.024 537.24ZM182.592 527.064C181.712 527.064 181 527.336 180.456 527.88C179.912 528.424 179.584 529.16 179.472 530.088H185.376C185.312 529.112 185.04 528.368 184.56 527.856C184.096 527.328 183.44 527.064 182.592 527.064ZM197.508 537V527.52H195.252V525.264H197.508V525.24C197.508 523.576 197.94 522.32 198.804 521.472C199.684 520.624 201.044 520.144 202.884 520.032L204.06 519.96L204.252 522.168L203.148 522.24C202.188 522.304 201.508 522.544 201.108 522.96C200.708 523.36 200.508 523.96 200.508 524.76V525.264H203.7V527.52H200.508V537H197.508ZM209.706 537.24C206.826 537.24 205.386 535.624 205.386 532.392V525.264H208.386V532.44C208.386 533.272 208.554 533.888 208.89 534.288C209.226 534.688 209.762 534.888 210.498 534.888C211.298 534.888 211.954 534.616 212.466 534.072C212.978 533.512 213.234 532.776 213.234 531.864V525.264H216.234V537H213.306V535.248C212.522 536.576 211.322 537.24 209.706 537.24ZM219.357 537V525.264H222.285V527.088C222.685 526.416 223.221 525.904 223.893 525.552C224.581 525.2 225.349 525.024 226.197 525.024C228.965 525.024 230.349 526.632 230.349 529.848V537H227.349V529.992C227.349 529.08 227.173 528.416 226.821 528C226.485 527.584 225.957 527.376 225.237 527.376C224.357 527.376 223.653 527.656 223.125 528.216C222.613 528.76 222.357 529.488 222.357 530.4V537H219.357ZM233.9 531.984L232.964 520.08H236.66L235.724 531.984H233.9ZM233.132 537V533.664H236.492V537H233.132Z" fill="white"/>
<path d="M47.5698 586V574.72H54.7378V576.064H49.2338V579.664H54.4018V581.008H49.2338V586H47.5698ZM56.1092 576.384V574.704H57.9972V576.384H56.1092ZM56.2532 586V578.192H57.8692V586H56.2532ZM60.1438 586V578.192H61.7118V579.488C61.9785 579.019 62.3411 578.661 62.7998 578.416C63.2691 578.171 63.7918 578.048 64.3678 578.048C66.2131 578.048 67.1358 579.093 67.1358 581.184V586H65.5198V581.28C65.5198 580.608 65.3865 580.117 65.1198 579.808C64.8638 579.499 64.4585 579.344 63.9038 579.344C63.2531 579.344 62.7305 579.552 62.3358 579.968C61.9518 580.373 61.7598 580.912 61.7598 581.584V586H60.1438ZM72.3386 586.144C71.6559 586.144 71.0532 585.984 70.5306 585.664C70.0186 585.333 69.6186 584.864 69.3306 584.256C69.0426 583.648 68.8986 582.928 68.8986 582.096C68.8986 581.264 69.0426 580.549 69.3306 579.952C69.6186 579.344 70.0186 578.875 70.5306 578.544C71.0426 578.213 71.6452 578.048 72.3386 578.048C72.9252 578.048 73.4479 578.176 73.9066 578.432C74.3652 578.688 74.7066 579.035 74.9306 579.472V574.72H76.5466V586H74.9626V584.64C74.7386 585.109 74.3919 585.477 73.9226 585.744C73.4639 586.011 72.9359 586.144 72.3386 586.144ZM72.7546 584.896C73.4159 584.896 73.9492 584.656 74.3546 584.176C74.7599 583.696 74.9626 583.003 74.9626 582.096C74.9626 581.189 74.7599 580.501 74.3546 580.032C73.9492 579.552 73.4159 579.312 72.7546 579.312C72.0826 579.312 71.5439 579.552 71.1386 580.032C70.7332 580.501 70.5306 581.189 70.5306 582.096C70.5306 583.003 70.7332 583.696 71.1386 584.176C71.5439 584.656 72.0826 584.896 72.7546 584.896ZM83.8188 588.88L85.2108 585.792L81.9468 578.192H83.6748L86.0748 584.128L88.5068 578.192H90.1708L85.5148 588.88H83.8188ZM94.5827 586.144C93.7934 586.144 93.1107 585.979 92.5347 585.648C91.9587 585.317 91.5107 584.853 91.1907 584.256C90.8814 583.648 90.7267 582.928 90.7267 582.096C90.7267 581.264 90.8814 580.549 91.1907 579.952C91.5107 579.344 91.9587 578.875 92.5347 578.544C93.1107 578.213 93.7934 578.048 94.5827 578.048C95.3507 578.048 96.0227 578.213 96.5987 578.544C97.1747 578.875 97.6227 579.344 97.9427 579.952C98.2627 580.549 98.4227 581.264 98.4227 582.096C98.4227 582.928 98.2627 583.648 97.9427 584.256C97.6227 584.853 97.1747 585.317 96.5987 585.648C96.0227 585.979 95.3507 586.144 94.5827 586.144ZM94.5827 584.896C95.244 584.896 95.7774 584.656 96.1827 584.176C96.588 583.696 96.7907 583.003 96.7907 582.096C96.7907 581.189 96.588 580.501 96.1827 580.032C95.7774 579.552 95.244 579.312 94.5827 579.312C93.9107 579.312 93.372 579.552 92.9667 580.032C92.5614 580.501 92.3587 581.189 92.3587 582.096C92.3587 583.003 92.5614 583.696 92.9667 584.176C93.372 584.656 93.9107 584.896 94.5827 584.896ZM103.022 586.144C101.134 586.144 100.19 585.093 100.19 582.992V578.192H101.806V583.008C101.806 583.637 101.934 584.101 102.19 584.4C102.446 584.699 102.851 584.848 103.406 584.848C104.014 584.848 104.504 584.645 104.878 584.24C105.262 583.835 105.454 583.291 105.454 582.608V578.192H107.07V586H105.502V584.752C105.246 585.211 104.904 585.557 104.478 585.792C104.051 586.027 103.566 586.144 103.022 586.144ZM109.347 586V578.192H110.915V579.584C111.32 578.656 112.163 578.139 113.443 578.032L113.971 578L114.083 579.376L113.107 579.472C111.688 579.611 110.979 580.341 110.979 581.664V586H109.347ZM122.959 586.144C122.159 586.144 121.465 585.979 120.879 585.648C120.303 585.307 119.855 584.832 119.535 584.224C119.215 583.605 119.055 582.88 119.055 582.048C119.055 580.811 119.407 579.835 120.111 579.12C120.815 578.405 121.764 578.048 122.959 578.048C123.449 578.048 123.935 578.133 124.415 578.304C124.895 578.475 125.289 578.709 125.599 579.008L125.087 580.144C124.788 579.867 124.457 579.664 124.095 579.536C123.743 579.397 123.407 579.328 123.087 579.328C122.329 579.328 121.743 579.568 121.327 580.048C120.921 580.517 120.719 581.189 120.719 582.064C120.719 582.939 120.921 583.627 121.327 584.128C121.743 584.619 122.329 584.864 123.087 584.864C123.407 584.864 123.743 584.8 124.095 584.672C124.457 584.533 124.788 584.325 125.087 584.048L125.599 585.2C125.289 585.488 124.889 585.717 124.399 585.888C123.919 586.059 123.439 586.144 122.959 586.144ZM130.223 586.144C129.434 586.144 128.751 585.979 128.175 585.648C127.599 585.317 127.151 584.853 126.831 584.256C126.522 583.648 126.367 582.928 126.367 582.096C126.367 581.264 126.522 580.549 126.831 579.952C127.151 579.344 127.599 578.875 128.175 578.544C128.751 578.213 129.434 578.048 130.223 578.048C130.991 578.048 131.663 578.213 132.239 578.544C132.815 578.875 133.263 579.344 133.583 579.952C133.903 580.549 134.063 581.264 134.063 582.096C134.063 582.928 133.903 583.648 133.583 584.256C133.263 584.853 132.815 585.317 132.239 585.648C131.663 585.979 130.991 586.144 130.223 586.144ZM130.223 584.896C130.885 584.896 131.418 584.656 131.823 584.176C132.229 583.696 132.431 583.003 132.431 582.096C132.431 581.189 132.229 580.501 131.823 580.032C131.418 579.552 130.885 579.312 130.223 579.312C129.551 579.312 129.013 579.552 128.607 580.032C128.202 580.501 127.999 581.189 127.999 582.096C127.999 583.003 128.202 583.696 128.607 584.176C129.013 584.656 129.551 584.896 130.223 584.896ZM135.878 586V578.192H137.446V579.488C137.713 579.019 138.076 578.661 138.534 578.416C139.004 578.171 139.526 578.048 140.102 578.048C141.948 578.048 142.87 579.093 142.87 581.184V586H141.254V581.28C141.254 580.608 141.121 580.117 140.854 579.808C140.598 579.499 140.193 579.344 139.638 579.344C138.988 579.344 138.465 579.552 138.07 579.968C137.686 580.373 137.494 580.912 137.494 581.584V586H135.878ZM145.097 586V578.192H146.665V579.488C146.932 579.019 147.294 578.661 147.753 578.416C148.222 578.171 148.745 578.048 149.321 578.048C151.166 578.048 152.089 579.093 152.089 581.184V586H150.473V581.28C150.473 580.608 150.34 580.117 150.073 579.808C149.817 579.499 149.412 579.344 148.857 579.344C148.206 579.344 147.684 579.552 147.289 579.968C146.905 580.373 146.713 580.912 146.713 581.584V586H145.097ZM157.98 586.144C156.7 586.144 155.692 585.787 154.956 585.072C154.22 584.347 153.852 583.36 153.852 582.112C153.852 581.312 154.012 580.608 154.332 580C154.662 579.381 155.116 578.901 155.692 578.56C156.268 578.219 156.929 578.048 157.676 578.048C158.753 578.048 159.601 578.395 160.22 579.088C160.838 579.771 161.148 580.715 161.148 581.92V582.464H155.42C155.537 584.085 156.396 584.896 157.996 584.896C158.444 584.896 158.881 584.827 159.308 584.688C159.745 584.549 160.156 584.32 160.54 584L161.02 585.12C160.668 585.44 160.214 585.691 159.66 585.872C159.105 586.053 158.545 586.144 157.98 586.144ZM157.74 579.184C157.068 579.184 156.534 579.392 156.14 579.808C155.745 580.224 155.505 580.779 155.42 581.472H159.788C159.756 580.747 159.564 580.187 159.212 579.792C158.86 579.387 158.369 579.184 157.74 579.184ZM166.349 586.144C165.549 586.144 164.856 585.979 164.269 585.648C163.693 585.307 163.245 584.832 162.925 584.224C162.605 583.605 162.445 582.88 162.445 582.048C162.445 580.811 162.797 579.835 163.501 579.12C164.205 578.405 165.155 578.048 166.349 578.048C166.84 578.048 167.325 578.133 167.805 578.304C168.285 578.475 168.68 578.709 168.989 579.008L168.477 580.144C168.179 579.867 167.848 579.664 167.485 579.536C167.133 579.397 166.797 579.328 166.477 579.328C165.72 579.328 165.133 579.568 164.717 580.048C164.312 580.517 164.109 581.189 164.109 582.064C164.109 582.939 164.312 583.627 164.717 584.128C165.133 584.619 165.72 584.864 166.477 584.864C166.797 584.864 167.133 584.8 167.485 584.672C167.848 584.533 168.179 584.325 168.477 584.048L168.989 585.2C168.68 585.488 168.28 585.717 167.789 585.888C167.309 586.059 166.829 586.144 166.349 586.144ZM173.722 586.144C172.74 586.144 172.01 585.893 171.53 585.392C171.05 584.891 170.81 584.165 170.81 583.216V579.44H169.29V578.192H170.81V575.84H172.426V578.192H174.842V579.44H172.426V583.088C172.426 583.653 172.543 584.08 172.778 584.368C173.023 584.656 173.418 584.8 173.962 584.8C174.132 584.8 174.298 584.784 174.458 584.752C174.618 584.709 174.778 584.661 174.938 584.608L175.194 585.824C175.034 585.92 174.81 585.995 174.522 586.048C174.244 586.112 173.978 586.144 173.722 586.144ZM176.094 576.384V574.704H177.982V576.384H176.094ZM176.238 586V578.192H177.854V586H176.238ZM183.52 586.144C182.731 586.144 182.048 585.979 181.472 585.648C180.896 585.317 180.448 584.853 180.128 584.256C179.819 583.648 179.664 582.928 179.664 582.096C179.664 581.264 179.819 580.549 180.128 579.952C180.448 579.344 180.896 578.875 181.472 578.544C182.048 578.213 182.731 578.048 183.52 578.048C184.288 578.048 184.96 578.213 185.536 578.544C186.112 578.875 186.56 579.344 186.88 579.952C187.2 580.549 187.36 581.264 187.36 582.096C187.36 582.928 187.2 583.648 186.88 584.256C186.56 584.853 186.112 585.317 185.536 585.648C184.96 585.979 184.288 586.144 183.52 586.144ZM183.52 584.896C184.182 584.896 184.715 584.656 185.12 584.176C185.526 583.696 185.728 583.003 185.728 582.096C185.728 581.189 185.526 580.501 185.12 580.032C184.715 579.552 184.182 579.312 183.52 579.312C182.848 579.312 182.31 579.552 181.904 580.032C181.499 580.501 181.296 581.189 181.296 582.096C181.296 583.003 181.499 583.696 181.904 584.176C182.31 584.656 182.848 584.896 183.52 584.896ZM189.175 586V578.192H190.743V579.488C191.01 579.019 191.372 578.661 191.831 578.416C192.3 578.171 192.823 578.048 193.399 578.048C195.244 578.048 196.167 579.093 196.167 581.184V586H194.551V581.28C194.551 580.608 194.418 580.117 194.151 579.808C193.895 579.499 193.49 579.344 192.935 579.344C192.284 579.344 191.762 579.552 191.367 579.968C190.983 580.373 190.791 580.912 190.791 581.584V586H189.175ZM204.709 586L201.733 578.192H203.397L205.493 584.112L207.653 578.192H208.901L211.029 584.144L213.157 578.192H214.741L211.765 586H210.293L208.229 580.416L206.181 586H204.709ZM215.984 576.384V574.704H217.872V576.384H215.984ZM216.128 586V578.192H217.744V586H216.128ZM223.347 586.144C222.365 586.144 221.635 585.893 221.155 585.392C220.675 584.891 220.435 584.165 220.435 583.216V579.44H218.915V578.192H220.435V575.84H222.051V578.192H224.467V579.44H222.051V583.088C222.051 583.653 222.168 584.08 222.403 584.368C222.648 584.656 223.043 584.8 223.587 584.8C223.757 584.8 223.923 584.784 224.083 584.752C224.243 584.709 224.403 584.661 224.563 584.608L224.819 585.824C224.659 585.92 224.435 585.995 224.147 586.048C223.869 586.112 223.603 586.144 223.347 586.144ZM225.863 586V574.72H227.479V579.408C227.745 578.96 228.103 578.624 228.551 578.4C229.009 578.165 229.521 578.048 230.087 578.048C231.932 578.048 232.855 579.093 232.855 581.184V586H231.239V581.28C231.239 580.608 231.105 580.117 230.839 579.808C230.583 579.499 230.177 579.344 229.623 579.344C228.972 579.344 228.449 579.552 228.055 579.968C227.671 580.373 227.479 580.912 227.479 581.584V586H225.863ZM239.46 586V574.72H241.124V579.584H247.444V574.72H249.092V586H247.444V580.976H241.124V586H239.46ZM254.046 586.144C253.502 586.144 253.017 586.037 252.59 585.824C252.163 585.611 251.822 585.323 251.566 584.96C251.321 584.597 251.198 584.187 251.198 583.728C251.198 583.152 251.342 582.699 251.63 582.368C251.929 582.037 252.414 581.797 253.086 581.648C253.769 581.499 254.686 581.424 255.838 581.424H256.382V581.008C256.382 580.4 256.254 579.963 255.998 579.696C255.742 579.429 255.321 579.296 254.734 579.296C254.286 579.296 253.838 579.365 253.39 579.504C252.942 579.632 252.483 579.84 252.014 580.128L251.518 578.992C251.923 578.704 252.43 578.475 253.038 578.304C253.646 578.133 254.227 578.048 254.782 578.048C255.849 578.048 256.638 578.304 257.15 578.816C257.662 579.317 257.918 580.107 257.918 581.184V586H256.398V584.704C256.206 585.152 255.907 585.504 255.502 585.76C255.097 586.016 254.611 586.144 254.046 586.144ZM254.366 584.992C254.942 584.992 255.422 584.789 255.806 584.384C256.19 583.979 256.382 583.467 256.382 582.848V582.416H255.854C255.075 582.416 254.462 582.453 254.014 582.528C253.577 582.603 253.262 582.731 253.07 582.912C252.889 583.083 252.798 583.323 252.798 583.632C252.798 584.037 252.937 584.368 253.214 584.624C253.491 584.869 253.875 584.992 254.366 584.992ZM260.144 586V578.192H261.712V579.584C262.117 578.656 262.96 578.139 264.24 578.032L264.768 578L264.88 579.376L263.904 579.472C262.485 579.611 261.776 580.341 261.776 581.664V586H260.144ZM269.878 586.144C268.897 586.144 268.166 585.893 267.686 585.392C267.206 584.891 266.966 584.165 266.966 583.216V579.44H265.446V578.192H266.966V575.84H268.582V578.192H270.998V579.44H268.582V583.088C268.582 583.653 268.699 584.08 268.934 584.368C269.179 584.656 269.574 584.8 270.118 584.8C270.289 584.8 270.454 584.784 270.614 584.752C270.774 584.709 270.934 584.661 271.094 584.608L271.35 585.824C271.19 585.92 270.966 585.995 270.678 586.048C270.401 586.112 270.134 586.144 269.878 586.144ZM276.581 582.384V581.072H281.189V582.384H276.581ZM291.595 586.144C290.71 586.144 289.899 586.032 289.163 585.808C288.427 585.573 287.803 585.248 287.291 584.832L287.819 583.52C288.353 583.925 288.923 584.229 289.531 584.432C290.139 584.635 290.827 584.736 291.595 584.736C292.502 584.736 293.169 584.576 293.595 584.256C294.033 583.925 294.251 583.499 294.251 582.976C294.251 582.549 294.097 582.213 293.787 581.968C293.478 581.712 292.961 581.509 292.235 581.36L290.523 581.008C289.51 580.795 288.753 580.443 288.251 579.952C287.761 579.461 287.515 578.8 287.515 577.968C287.515 577.296 287.691 576.704 288.043 576.192C288.406 575.68 288.907 575.285 289.547 575.008C290.187 574.72 290.923 574.576 291.755 574.576C292.523 574.576 293.233 574.693 293.883 574.928C294.545 575.152 295.105 575.483 295.563 575.92L295.019 577.184C294.113 576.384 293.019 575.984 291.739 575.984C290.95 575.984 290.321 576.16 289.851 576.512C289.393 576.864 289.163 577.333 289.163 577.92C289.163 578.368 289.307 578.725 289.595 578.992C289.883 579.259 290.363 579.461 291.035 579.6L292.731 579.952C293.798 580.176 294.593 580.523 295.115 580.992C295.638 581.451 295.899 582.075 295.899 582.864C295.899 583.525 295.723 584.101 295.371 584.592C295.019 585.083 294.523 585.467 293.883 585.744C293.243 586.011 292.481 586.144 291.595 586.144ZM297.613 586V574.72H299.229V579.408C299.495 578.96 299.853 578.624 300.301 578.4C300.759 578.165 301.271 578.048 301.837 578.048C303.682 578.048 304.605 579.093 304.605 581.184V586H302.989V581.28C302.989 580.608 302.855 580.117 302.589 579.808C302.333 579.499 301.927 579.344 301.373 579.344C300.722 579.344 300.199 579.552 299.805 579.968C299.421 580.373 299.229 580.912 299.229 581.584V586H297.613ZM309.327 586.144C308.783 586.144 308.298 586.037 307.871 585.824C307.445 585.611 307.103 585.323 306.847 584.96C306.602 584.597 306.479 584.187 306.479 583.728C306.479 583.152 306.623 582.699 306.911 582.368C307.21 582.037 307.695 581.797 308.367 581.648C309.05 581.499 309.967 581.424 311.119 581.424H311.663V581.008C311.663 580.4 311.535 579.963 311.279 579.696C311.023 579.429 310.602 579.296 310.015 579.296C309.567 579.296 309.119 579.365 308.671 579.504C308.223 579.632 307.765 579.84 307.295 580.128L306.799 578.992C307.205 578.704 307.711 578.475 308.319 578.304C308.927 578.133 309.509 578.048 310.063 578.048C311.13 578.048 311.919 578.304 312.431 578.816C312.943 579.317 313.199 580.107 313.199 581.184V586H311.679V584.704C311.487 585.152 311.189 585.504 310.783 585.76C310.378 586.016 309.893 586.144 309.327 586.144ZM309.647 584.992C310.223 584.992 310.703 584.789 311.087 584.384C311.471 583.979 311.663 583.467 311.663 582.848V582.416H311.135C310.357 582.416 309.743 582.453 309.295 582.528C308.858 582.603 308.543 582.731 308.351 582.912C308.17 583.083 308.079 583.323 308.079 583.632C308.079 584.037 308.218 584.368 308.495 584.624C308.773 584.869 309.157 584.992 309.647 584.992ZM315.425 586V578.192H316.993V579.584C317.398 578.656 318.241 578.139 319.521 578.032L320.049 578L320.161 579.376L319.185 579.472C317.766 579.611 317.057 580.341 317.057 581.664V586H315.425ZM324.948 586.144C323.668 586.144 322.66 585.787 321.924 585.072C321.188 584.347 320.82 583.36 320.82 582.112C320.82 581.312 320.98 580.608 321.3 580C321.631 579.381 322.084 578.901 322.66 578.56C323.236 578.219 323.898 578.048 324.644 578.048C325.722 578.048 326.57 578.395 327.188 579.088C327.807 579.771 328.116 580.715 328.116 581.92V582.464H322.388C322.506 584.085 323.364 584.896 324.964 584.896C325.412 584.896 325.85 584.827 326.276 584.688C326.714 584.549 327.124 584.32 327.508 584L327.988 585.12C327.636 585.44 327.183 585.691 326.628 585.872C326.074 586.053 325.514 586.144 324.948 586.144ZM324.708 579.184C324.036 579.184 323.503 579.392 323.108 579.808C322.714 580.224 322.474 580.779 322.388 581.472H326.756C326.724 580.747 326.532 580.187 326.18 579.792C325.828 579.387 325.338 579.184 324.708 579.184ZM51.6611 608.144C51.0211 608.144 50.4237 608.064 49.8691 607.904C49.3144 607.733 48.8504 607.499 48.4771 607.2L48.9411 606.112C49.3357 606.389 49.7677 606.603 50.2371 606.752C50.7171 606.901 51.1971 606.976 51.6771 606.976C52.2424 606.976 52.6691 606.875 52.9571 606.672C53.2451 606.469 53.3891 606.197 53.3891 605.856C53.3891 605.579 53.2931 605.365 53.1011 605.216C52.9091 605.056 52.6211 604.933 52.2371 604.848L50.7171 604.544C49.3731 604.267 48.7011 603.573 48.7011 602.464C48.7011 601.728 48.9944 601.141 49.5811 600.704C50.1677 600.267 50.9357 600.048 51.8851 600.048C52.4291 600.048 52.9464 600.128 53.4371 600.288C53.9384 600.448 54.3544 600.688 54.6851 601.008L54.2211 602.096C53.9011 601.819 53.5331 601.605 53.1171 601.456C52.7011 601.307 52.2904 601.232 51.8851 601.232C51.3304 601.232 50.9091 601.339 50.6211 601.552C50.3331 601.755 50.1891 602.032 50.1891 602.384C50.1891 602.917 50.5411 603.259 51.2451 603.408L52.7651 603.712C53.4584 603.851 53.9811 604.085 54.3331 604.416C54.6957 604.747 54.8771 605.195 54.8771 605.76C54.8771 606.507 54.5837 607.093 53.9971 607.52C53.4104 607.936 52.6317 608.144 51.6611 608.144ZM60.0671 608.144C59.2777 608.144 58.5951 607.979 58.0191 607.648C57.4431 607.317 56.9951 606.853 56.6751 606.256C56.3657 605.648 56.2111 604.928 56.2111 604.096C56.2111 603.264 56.3657 602.549 56.6751 601.952C56.9951 601.344 57.4431 600.875 58.0191 600.544C58.5951 600.213 59.2777 600.048 60.0671 600.048C60.8351 600.048 61.5071 600.213 62.0831 600.544C62.6591 600.875 63.1071 601.344 63.4271 601.952C63.7471 602.549 63.9071 603.264 63.9071 604.096C63.9071 604.928 63.7471 605.648 63.4271 606.256C63.1071 606.853 62.6591 607.317 62.0831 607.648C61.5071 607.979 60.8351 608.144 60.0671 608.144ZM60.0671 606.896C60.7284 606.896 61.2617 606.656 61.6671 606.176C62.0724 605.696 62.2751 605.003 62.2751 604.096C62.2751 603.189 62.0724 602.501 61.6671 602.032C61.2617 601.552 60.7284 601.312 60.0671 601.312C59.3951 601.312 58.8564 601.552 58.4511 602.032C58.0457 602.501 57.8431 603.189 57.8431 604.096C57.8431 605.003 58.0457 605.696 58.4511 606.176C58.8564 606.656 59.3951 606.896 60.0671 606.896ZM65.7539 608V600.192H67.3219V601.456C67.5566 601.008 67.8819 600.661 68.2979 600.416C68.7139 600.171 69.1993 600.048 69.7539 600.048C70.9486 600.048 71.7219 600.571 72.0739 601.616C72.3193 601.125 72.6713 600.741 73.1299 600.464C73.5886 600.187 74.1113 600.048 74.6979 600.048C76.4473 600.048 77.3219 601.093 77.3219 603.184V608H75.7059V603.264C75.7059 602.603 75.5886 602.117 75.3539 601.808C75.1299 601.499 74.7566 601.344 74.2339 601.344C73.6473 601.344 73.1833 601.552 72.8419 601.968C72.5006 602.373 72.3299 602.928 72.3299 603.632V608H70.7139V603.264C70.7139 602.603 70.6019 602.117 70.3779 601.808C70.1539 601.499 69.7806 601.344 69.2579 601.344C68.6713 601.344 68.2073 601.552 67.8659 601.968C67.5353 602.373 67.3699 602.928 67.3699 603.632V608H65.7539ZM83.2453 608.144C81.9653 608.144 80.9573 607.787 80.2213 607.072C79.4853 606.347 79.1173 605.36 79.1173 604.112C79.1173 603.312 79.2773 602.608 79.5973 602C79.928 601.381 80.3813 600.901 80.9573 600.56C81.5333 600.219 82.1946 600.048 82.9413 600.048C84.0186 600.048 84.8666 600.395 85.4853 601.088C86.104 601.771 86.4133 602.715 86.4133 603.92V604.464H80.6853C80.8026 606.085 81.6613 606.896 83.2613 606.896C83.7093 606.896 84.1466 606.827 84.5733 606.688C85.0106 606.549 85.4213 606.32 85.8053 606L86.2853 607.12C85.9333 607.44 85.48 607.691 84.9253 607.872C84.3706 608.053 83.8106 608.144 83.2453 608.144ZM83.0053 601.184C82.3333 601.184 81.8 601.392 81.4053 601.808C81.0106 602.224 80.7706 602.779 80.6853 603.472H85.0533C85.0213 602.747 84.8293 602.187 84.4773 601.792C84.1253 601.387 83.6346 601.184 83.0053 601.184ZM95.1622 608.144C93.2742 608.144 92.3302 607.093 92.3302 604.992V600.192H93.9462V605.008C93.9462 605.637 94.0742 606.101 94.3302 606.4C94.5862 606.699 94.9915 606.848 95.5462 606.848C96.1542 606.848 96.6449 606.645 97.0182 606.24C97.4022 605.835 97.5942 605.291 97.5942 604.608V600.192H99.2102V608H97.6422V606.752C97.3862 607.211 97.0449 607.557 96.6182 607.792C96.1915 608.027 95.7062 608.144 95.1622 608.144ZM104.224 608.144C103.584 608.144 102.986 608.064 102.432 607.904C101.877 607.733 101.413 607.499 101.04 607.2L101.504 606.112C101.898 606.389 102.33 606.603 102.8 606.752C103.28 606.901 103.76 606.976 104.24 606.976C104.805 606.976 105.232 606.875 105.52 606.672C105.808 606.469 105.952 606.197 105.952 605.856C105.952 605.579 105.856 605.365 105.664 605.216C105.472 605.056 105.184 604.933 104.8 604.848L103.28 604.544C101.936 604.267 101.264 603.573 101.264 602.464C101.264 601.728 101.557 601.141 102.144 600.704C102.73 600.267 103.498 600.048 104.448 600.048C104.992 600.048 105.509 600.128 106 600.288C106.501 600.448 106.917 600.688 107.248 601.008L106.784 602.096C106.464 601.819 106.096 601.605 105.68 601.456C105.264 601.307 104.853 601.232 104.448 601.232C103.893 601.232 103.472 601.339 103.184 601.552C102.896 601.755 102.752 602.032 102.752 602.384C102.752 602.917 103.104 603.259 103.808 603.408L105.328 603.712C106.021 603.851 106.544 604.085 106.896 604.416C107.258 604.747 107.44 605.195 107.44 605.76C107.44 606.507 107.146 607.093 106.56 607.52C105.973 607.936 105.194 608.144 104.224 608.144ZM112.902 608.144C111.622 608.144 110.614 607.787 109.878 607.072C109.142 606.347 108.774 605.36 108.774 604.112C108.774 603.312 108.934 602.608 109.254 602C109.584 601.381 110.038 600.901 110.614 600.56C111.19 600.219 111.851 600.048 112.598 600.048C113.675 600.048 114.523 600.395 115.142 601.088C115.76 601.771 116.07 602.715 116.07 603.92V604.464H110.342C110.459 606.085 111.318 606.896 112.918 606.896C113.366 606.896 113.803 606.827 114.23 606.688C114.667 606.549 115.078 606.32 115.462 606L115.942 607.12C115.59 607.44 115.136 607.691 114.582 607.872C114.027 608.053 113.467 608.144 112.902 608.144ZM112.662 601.184C111.99 601.184 111.456 601.392 111.062 601.808C110.667 602.224 110.427 602.779 110.342 603.472H114.71C114.678 602.747 114.486 602.187 114.134 601.792C113.782 601.387 113.291 601.184 112.662 601.184ZM118.28 608V601.44H116.76V600.192H118.28V600.048C118.28 598.971 118.552 598.16 119.096 597.616C119.65 597.072 120.498 596.768 121.64 596.704L122.344 596.656L122.456 597.872L121.72 597.92C121.069 597.963 120.6 598.139 120.312 598.448C120.034 598.757 119.896 599.216 119.896 599.824V600.192H122.088V601.44H119.896V608H118.28ZM126.147 608.144C124.259 608.144 123.315 607.093 123.315 604.992V600.192H124.931V605.008C124.931 605.637 125.059 606.101 125.315 606.4C125.571 606.699 125.976 606.848 126.531 606.848C127.139 606.848 127.629 606.645 128.003 606.24C128.387 605.835 128.579 605.291 128.579 604.608V600.192H130.195V608H128.627V606.752C128.371 607.211 128.029 607.557 127.603 607.792C127.176 608.027 126.691 608.144 126.147 608.144ZM135.016 608.144C134.163 608.144 133.523 607.904 133.096 607.424C132.68 606.944 132.472 606.24 132.472 605.312V596.72H134.088V605.216C134.088 606.272 134.52 606.8 135.384 606.8C135.512 606.8 135.629 606.795 135.736 606.784C135.853 606.773 135.971 606.752 136.088 606.72L136.056 608.016C135.693 608.101 135.347 608.144 135.016 608.144ZM141.422 598.384V596.704H143.31V598.384H141.422ZM141.566 608V600.192H143.182V608H141.566ZM145.456 608V600.192H147.024V601.488C147.291 601.019 147.654 600.661 148.112 600.416C148.582 600.171 149.104 600.048 149.68 600.048C151.526 600.048 152.448 601.093 152.448 603.184V608H150.832V603.28C150.832 602.608 150.699 602.117 150.432 601.808C150.176 601.499 149.771 601.344 149.216 601.344C148.566 601.344 148.043 601.552 147.648 601.968C147.264 602.373 147.072 602.912 147.072 603.584V608H145.456ZM155.139 608V601.44H153.619V600.192H155.139V600.048C155.139 598.971 155.411 598.16 155.955 597.616C156.51 597.072 157.358 596.768 158.499 596.704L159.203 596.656L159.315 597.872L158.579 597.92C157.928 597.963 157.459 598.139 157.171 598.448C156.894 598.757 156.755 599.216 156.755 599.824V600.192H158.947V601.44H156.755V608H155.139ZM163.395 608.144C162.606 608.144 161.923 607.979 161.347 607.648C160.771 607.317 160.323 606.853 160.003 606.256C159.694 605.648 159.539 604.928 159.539 604.096C159.539 603.264 159.694 602.549 160.003 601.952C160.323 601.344 160.771 600.875 161.347 600.544C161.923 600.213 162.606 600.048 163.395 600.048C164.163 600.048 164.835 600.213 165.411 600.544C165.987 600.875 166.435 601.344 166.755 601.952C167.075 602.549 167.235 603.264 167.235 604.096C167.235 604.928 167.075 605.648 166.755 606.256C166.435 606.853 165.987 607.317 165.411 607.648C164.835 607.979 164.163 608.144 163.395 608.144ZM163.395 606.896C164.057 606.896 164.59 606.656 164.995 606.176C165.401 605.696 165.603 605.003 165.603 604.096C165.603 603.189 165.401 602.501 164.995 602.032C164.59 601.552 164.057 601.312 163.395 601.312C162.723 601.312 162.185 601.552 161.779 602.032C161.374 602.501 161.171 603.189 161.171 604.096C161.171 605.003 161.374 605.696 161.779 606.176C162.185 606.656 162.723 606.896 163.395 606.896ZM169.05 608V600.192H170.618V601.584C171.023 600.656 171.866 600.139 173.146 600.032L173.674 600L173.786 601.376L172.81 601.472C171.391 601.611 170.682 602.341 170.682 603.664V608H169.05ZM175.051 608V600.192H176.619V601.456C176.853 601.008 177.179 600.661 177.595 600.416C178.011 600.171 178.496 600.048 179.051 600.048C180.245 600.048 181.019 600.571 181.371 601.616C181.616 601.125 181.968 600.741 182.427 600.464C182.885 600.187 183.408 600.048 183.995 600.048C185.744 600.048 186.619 601.093 186.619 603.184V608H185.003V603.264C185.003 602.603 184.885 602.117 184.651 601.808C184.427 601.499 184.053 601.344 183.531 601.344C182.944 601.344 182.48 601.552 182.139 601.968C181.797 602.373 181.627 602.928 181.627 603.632V608H180.011V603.264C180.011 602.603 179.899 602.117 179.675 601.808C179.451 601.499 179.077 601.344 178.555 601.344C177.968 601.344 177.504 601.552 177.163 601.968C176.832 602.373 176.667 602.928 176.667 603.632V608H175.051ZM191.374 608.144C190.83 608.144 190.345 608.037 189.918 607.824C189.492 607.611 189.15 607.323 188.894 606.96C188.649 606.597 188.526 606.187 188.526 605.728C188.526 605.152 188.67 604.699 188.958 604.368C189.257 604.037 189.742 603.797 190.414 603.648C191.097 603.499 192.014 603.424 193.166 603.424H193.71V603.008C193.71 602.4 193.582 601.963 193.326 601.696C193.07 601.429 192.649 601.296 192.062 601.296C191.614 601.296 191.166 601.365 190.718 601.504C190.27 601.632 189.812 601.84 189.342 602.128L188.846 600.992C189.252 600.704 189.758 600.475 190.366 600.304C190.974 600.133 191.556 600.048 192.11 600.048C193.177 600.048 193.966 600.304 194.478 600.816C194.99 601.317 195.246 602.107 195.246 603.184V608H193.726V606.704C193.534 607.152 193.236 607.504 192.83 607.76C192.425 608.016 191.94 608.144 191.374 608.144ZM191.694 606.992C192.27 606.992 192.75 606.789 193.134 606.384C193.518 605.979 193.71 605.467 193.71 604.848V604.416H193.182C192.404 604.416 191.79 604.453 191.342 604.528C190.905 604.603 190.59 604.731 190.398 604.912C190.217 605.083 190.126 605.323 190.126 605.632C190.126 606.037 190.265 606.368 190.542 606.624C190.82 606.869 191.204 606.992 191.694 606.992ZM200.8 608.144C199.819 608.144 199.088 607.893 198.608 607.392C198.128 606.891 197.888 606.165 197.888 605.216V601.44H196.368V600.192H197.888V597.84H199.504V600.192H201.92V601.44H199.504V605.088C199.504 605.653 199.621 606.08 199.856 606.368C200.101 606.656 200.496 606.8 201.04 606.8C201.211 606.8 201.376 606.784 201.536 606.752C201.696 606.709 201.856 606.661 202.016 606.608L202.272 607.824C202.112 607.92 201.888 607.995 201.6 608.048C201.323 608.112 201.056 608.144 200.8 608.144ZM203.172 598.384V596.704H205.06V598.384H203.172ZM203.316 608V600.192H204.932V608H203.316ZM210.598 608.144C209.809 608.144 209.126 607.979 208.55 607.648C207.974 607.317 207.526 606.853 207.206 606.256C206.897 605.648 206.742 604.928 206.742 604.096C206.742 603.264 206.897 602.549 207.206 601.952C207.526 601.344 207.974 600.875 208.55 600.544C209.126 600.213 209.809 600.048 210.598 600.048C211.366 600.048 212.038 600.213 212.614 600.544C213.19 600.875 213.638 601.344 213.958 601.952C214.278 602.549 214.438 603.264 214.438 604.096C214.438 604.928 214.278 605.648 213.958 606.256C213.638 606.853 213.19 607.317 212.614 607.648C212.038 607.979 211.366 608.144 210.598 608.144ZM210.598 606.896C211.26 606.896 211.793 606.656 212.198 606.176C212.604 605.696 212.806 605.003 212.806 604.096C212.806 603.189 212.604 602.501 212.198 602.032C211.793 601.552 211.26 601.312 210.598 601.312C209.926 601.312 209.388 601.552 208.982 602.032C208.577 602.501 208.374 603.189 208.374 604.096C208.374 605.003 208.577 605.696 208.982 606.176C209.388 606.656 209.926 606.896 210.598 606.896ZM216.253 608V600.192H217.821V601.488C218.088 601.019 218.451 600.661 218.909 600.416C219.379 600.171 219.901 600.048 220.477 600.048C222.323 600.048 223.245 601.093 223.245 603.184V608H221.629V603.28C221.629 602.608 221.496 602.117 221.229 601.808C220.973 601.499 220.568 601.344 220.013 601.344C219.363 601.344 218.84 601.552 218.445 601.968C218.061 602.373 217.869 602.912 217.869 603.584V608H216.253ZM233.003 608.144C232.022 608.144 231.291 607.893 230.811 607.392C230.331 606.891 230.091 606.165 230.091 605.216V601.44H228.571V600.192H230.091V597.84H231.707V600.192H234.123V601.44H231.707V605.088C231.707 605.653 231.824 606.08 232.059 606.368C232.304 606.656 232.699 606.8 233.243 606.8C233.414 606.8 233.579 606.784 233.739 606.752C233.899 606.709 234.059 606.661 234.219 606.608L234.475 607.824C234.315 607.92 234.091 607.995 233.803 608.048C233.526 608.112 233.259 608.144 233.003 608.144ZM238.833 608.144C238.043 608.144 237.361 607.979 236.785 607.648C236.209 607.317 235.761 606.853 235.441 606.256C235.131 605.648 234.977 604.928 234.977 604.096C234.977 603.264 235.131 602.549 235.441 601.952C235.761 601.344 236.209 600.875 236.785 600.544C237.361 600.213 238.043 600.048 238.833 600.048C239.601 600.048 240.273 600.213 240.849 600.544C241.425 600.875 241.873 601.344 242.193 601.952C242.513 602.549 242.673 603.264 242.673 604.096C242.673 604.928 242.513 605.648 242.193 606.256C241.873 606.853 241.425 607.317 240.849 607.648C240.273 607.979 239.601 608.144 238.833 608.144ZM238.833 606.896C239.494 606.896 240.027 606.656 240.433 606.176C240.838 605.696 241.041 605.003 241.041 604.096C241.041 603.189 240.838 602.501 240.433 602.032C240.027 601.552 239.494 601.312 238.833 601.312C238.161 601.312 237.622 601.552 237.217 602.032C236.811 602.501 236.609 603.189 236.609 604.096C236.609 605.003 236.811 605.696 237.217 606.176C237.622 606.656 238.161 606.896 238.833 606.896ZM252.355 608.144C251.075 608.144 250.067 607.787 249.331 607.072C248.595 606.347 248.227 605.36 248.227 604.112C248.227 603.312 248.387 602.608 248.707 602C249.037 601.381 249.491 600.901 250.067 600.56C250.643 600.219 251.304 600.048 252.051 600.048C253.128 600.048 253.976 600.395 254.595 601.088C255.213 601.771 255.523 602.715 255.523 603.92V604.464H249.795C249.912 606.085 250.771 606.896 252.371 606.896C252.819 606.896 253.256 606.827 253.683 606.688C254.12 606.549 254.531 606.32 254.915 606L255.395 607.12C255.043 607.44 254.589 607.691 254.035 607.872C253.48 608.053 252.92 608.144 252.355 608.144ZM252.115 601.184C251.443 601.184 250.909 601.392 250.515 601.808C250.12 602.224 249.88 602.779 249.795 603.472H254.163C254.131 602.747 253.939 602.187 253.587 601.792C253.235 601.387 252.744 601.184 252.115 601.184ZM257.284 608V600.192H258.852V601.488C259.119 601.019 259.482 600.661 259.94 600.416C260.41 600.171 260.932 600.048 261.508 600.048C263.354 600.048 264.276 601.093 264.276 603.184V608H262.66V603.28C262.66 602.608 262.527 602.117 262.26 601.808C262.004 601.499 261.599 601.344 261.044 601.344C260.394 601.344 259.871 601.552 259.476 601.968C259.092 602.373 258.9 602.912 258.9 603.584V608H257.284ZM269.239 608.144C268.599 608.144 268.002 608.064 267.447 607.904C266.893 607.733 266.429 607.499 266.055 607.2L266.519 606.112C266.914 606.389 267.346 606.603 267.815 606.752C268.295 606.901 268.775 606.976 269.255 606.976C269.821 606.976 270.247 606.875 270.535 606.672C270.823 606.469 270.967 606.197 270.967 605.856C270.967 605.579 270.871 605.365 270.679 605.216C270.487 605.056 270.199 604.933 269.815 604.848L268.295 604.544C266.951 604.267 266.279 603.573 266.279 602.464C266.279 601.728 266.573 601.141 267.159 600.704C267.746 600.267 268.514 600.048 269.463 600.048C270.007 600.048 270.525 600.128 271.015 600.288C271.517 600.448 271.933 600.688 272.263 601.008L271.799 602.096C271.479 601.819 271.111 601.605 270.695 601.456C270.279 601.307 269.869 601.232 269.463 601.232C268.909 601.232 268.487 601.339 268.199 601.552C267.911 601.755 267.767 602.032 267.767 602.384C267.767 602.917 268.119 603.259 268.823 603.408L270.343 603.712C271.037 603.851 271.559 604.085 271.911 604.416C272.274 604.747 272.455 605.195 272.455 605.76C272.455 606.507 272.162 607.093 271.575 607.52C270.989 607.936 270.21 608.144 269.239 608.144ZM277.037 608.144C275.149 608.144 274.205 607.093 274.205 604.992V600.192H275.821V605.008C275.821 605.637 275.949 606.101 276.205 606.4C276.461 606.699 276.867 606.848 277.421 606.848C278.029 606.848 278.52 606.645 278.893 606.24C279.277 605.835 279.469 605.291 279.469 604.608V600.192H281.085V608H279.517V606.752C279.261 607.211 278.92 607.557 278.493 607.792C278.067 608.027 277.581 608.144 277.037 608.144ZM283.363 608V600.192H284.931V601.584C285.336 600.656 286.179 600.139 287.459 600.032L287.987 600L288.099 601.376L287.123 601.472C285.704 601.611 284.995 602.341 284.995 603.664V608H283.363ZM292.886 608.144C291.606 608.144 290.598 607.787 289.862 607.072C289.126 606.347 288.758 605.36 288.758 604.112C288.758 603.312 288.918 602.608 289.238 602C289.569 601.381 290.022 600.901 290.598 600.56C291.174 600.219 291.835 600.048 292.582 600.048C293.659 600.048 294.507 600.395 295.126 601.088C295.745 601.771 296.054 602.715 296.054 603.92V604.464H290.326C290.443 606.085 291.302 606.896 292.902 606.896C293.35 606.896 293.787 606.827 294.214 606.688C294.651 606.549 295.062 606.32 295.446 606L295.926 607.12C295.574 607.44 295.121 607.691 294.566 607.872C294.011 608.053 293.451 608.144 292.886 608.144ZM292.646 601.184C291.974 601.184 291.441 601.392 291.046 601.808C290.651 602.224 290.411 602.779 290.326 603.472H294.694C294.662 602.747 294.47 602.187 294.118 601.792C293.766 601.387 293.275 601.184 292.646 601.184ZM302.819 610.88L304.211 607.792L300.947 600.192H302.675L305.075 606.128L307.507 600.192H309.171L304.515 610.88H302.819ZM313.583 608.144C312.793 608.144 312.111 607.979 311.535 607.648C310.959 607.317 310.511 606.853 310.191 606.256C309.881 605.648 309.727 604.928 309.727 604.096C309.727 603.264 309.881 602.549 310.191 601.952C310.511 601.344 310.959 600.875 311.535 600.544C312.111 600.213 312.793 600.048 313.583 600.048C314.351 600.048 315.023 600.213 315.599 600.544C316.175 600.875 316.623 601.344 316.943 601.952C317.263 602.549 317.423 603.264 317.423 604.096C317.423 604.928 317.263 605.648 316.943 606.256C316.623 606.853 316.175 607.317 315.599 607.648C315.023 607.979 314.351 608.144 313.583 608.144ZM313.583 606.896C314.244 606.896 314.777 606.656 315.183 606.176C315.588 605.696 315.791 605.003 315.791 604.096C315.791 603.189 315.588 602.501 315.183 602.032C314.777 601.552 314.244 601.312 313.583 601.312C312.911 601.312 312.372 601.552 311.967 602.032C311.561 602.501 311.359 603.189 311.359 604.096C311.359 605.003 311.561 605.696 311.967 606.176C312.372 606.656 312.911 606.896 313.583 606.896ZM322.022 608.144C320.134 608.144 319.19 607.093 319.19 604.992V600.192H320.806V605.008C320.806 605.637 320.934 606.101 321.19 606.4C321.446 606.699 321.851 606.848 322.406 606.848C323.014 606.848 323.504 606.645 323.878 606.24C324.262 605.835 324.454 605.291 324.454 604.608V600.192H326.07V608H324.502V606.752C324.246 607.211 323.904 607.557 323.478 607.792C323.051 608.027 322.566 608.144 322.022 608.144ZM66.9719 630V622.192H68.5399V623.488C68.8066 623.019 69.1693 622.661 69.6279 622.416C70.0973 622.171 70.6199 622.048 71.1959 622.048C73.0413 622.048 73.9639 623.093 73.9639 625.184V630H72.3479V625.28C72.3479 624.608 72.2146 624.117 71.9479 623.808C71.6919 623.499 71.2866 623.344 70.7319 623.344C70.0813 623.344 69.5586 623.552 69.1639 623.968C68.7799 624.373 68.5879 624.912 68.5879 625.584V630H66.9719ZM79.8547 630.144C78.5747 630.144 77.5667 629.787 76.8307 629.072C76.0947 628.347 75.7267 627.36 75.7267 626.112C75.7267 625.312 75.8867 624.608 76.2067 624C76.5374 623.381 76.9907 622.901 77.5667 622.56C78.1427 622.219 78.804 622.048 79.5507 622.048C80.628 622.048 81.476 622.395 82.0947 623.088C82.7134 623.771 83.0227 624.715 83.0227 625.92V626.464H77.2947C77.412 628.085 78.2707 628.896 79.8707 628.896C80.3187 628.896 80.756 628.827 81.1827 628.688C81.62 628.549 82.0307 628.32 82.4147 628L82.8947 629.12C82.5427 629.44 82.0894 629.691 81.5347 629.872C80.98 630.053 80.42 630.144 79.8547 630.144ZM79.6147 623.184C78.9427 623.184 78.4094 623.392 78.0147 623.808C77.62 624.224 77.38 624.779 77.2947 625.472H81.6627C81.6307 624.747 81.4387 624.187 81.0867 623.792C80.7347 623.387 80.244 623.184 79.6147 623.184ZM86.9631 630L83.6031 622.192H85.3471L87.7311 628.128L90.1791 622.192H91.8271L88.4191 630H86.9631ZM96.5109 630.144C95.2309 630.144 94.2229 629.787 93.4869 629.072C92.7509 628.347 92.3829 627.36 92.3829 626.112C92.3829 625.312 92.5429 624.608 92.8629 624C93.1936 623.381 93.6469 622.901 94.2229 622.56C94.7989 622.219 95.4603 622.048 96.2069 622.048C97.2843 622.048 98.1323 622.395 98.7509 623.088C99.3696 623.771 99.6789 624.715 99.6789 625.92V626.464H93.9509C94.0683 628.085 94.9269 628.896 96.5269 628.896C96.9749 628.896 97.4123 628.827 97.8389 628.688C98.2763 628.549 98.6869 628.32 99.0709 628L99.5509 629.12C99.1989 629.44 98.7456 629.691 98.1909 629.872C97.6363 630.053 97.0763 630.144 96.5109 630.144ZM96.2709 623.184C95.5989 623.184 95.0656 623.392 94.6709 623.808C94.2763 624.224 94.0363 624.779 93.9509 625.472H98.3189C98.2869 624.747 98.0949 624.187 97.7429 623.792C97.3909 623.387 96.9003 623.184 96.2709 623.184ZM101.441 630V622.192H103.009V623.584C103.414 622.656 104.257 622.139 105.537 622.032L106.065 622L106.177 623.376L105.201 623.472C103.782 623.611 103.073 624.341 103.073 625.664V630H101.441ZM111.645 630V622.192H113.213V623.456C113.447 623.008 113.773 622.661 114.189 622.416C114.605 622.171 115.09 622.048 115.645 622.048C116.839 622.048 117.613 622.571 117.965 623.616C118.21 623.125 118.562 622.741 119.021 622.464C119.479 622.187 120.002 622.048 120.589 622.048C122.338 622.048 123.213 623.093 123.213 625.184V630H121.597V625.264C121.597 624.603 121.479 624.117 121.245 623.808C121.021 623.499 120.647 623.344 120.125 623.344C119.538 623.344 119.074 623.552 118.733 623.968C118.391 624.373 118.221 624.928 118.221 625.632V630H116.605V625.264C116.605 624.603 116.493 624.117 116.269 623.808C116.045 623.499 115.671 623.344 115.149 623.344C114.562 623.344 114.098 623.552 113.757 623.968C113.426 624.373 113.261 624.928 113.261 625.632V630H111.645ZM127.968 630.144C127.424 630.144 126.939 630.037 126.512 629.824C126.085 629.611 125.744 629.323 125.488 628.96C125.243 628.597 125.12 628.187 125.12 627.728C125.12 627.152 125.264 626.699 125.552 626.368C125.851 626.037 126.336 625.797 127.008 625.648C127.691 625.499 128.608 625.424 129.76 625.424H130.304V625.008C130.304 624.4 130.176 623.963 129.92 623.696C129.664 623.429 129.243 623.296 128.656 623.296C128.208 623.296 127.76 623.365 127.312 623.504C126.864 623.632 126.405 623.84 125.936 624.128L125.44 622.992C125.845 622.704 126.352 622.475 126.96 622.304C127.568 622.133 128.149 622.048 128.704 622.048C129.771 622.048 130.56 622.304 131.072 622.816C131.584 623.317 131.84 624.107 131.84 625.184V630H130.32V628.704C130.128 629.152 129.829 629.504 129.424 629.76C129.019 630.016 128.533 630.144 127.968 630.144ZM128.288 628.992C128.864 628.992 129.344 628.789 129.728 628.384C130.112 627.979 130.304 627.467 130.304 626.848V626.416H129.776C128.997 626.416 128.384 626.453 127.936 626.528C127.499 626.603 127.184 626.731 126.992 626.912C126.811 627.083 126.72 627.323 126.72 627.632C126.72 628.037 126.859 628.368 127.136 628.624C127.413 628.869 127.797 628.992 128.288 628.992ZM137.394 630.144C136.412 630.144 135.682 629.893 135.202 629.392C134.722 628.891 134.482 628.165 134.482 627.216V623.44H132.962V622.192H134.482V619.84H136.098V622.192H138.514V623.44H136.098V627.088C136.098 627.653 136.215 628.08 136.45 628.368C136.695 628.656 137.09 628.8 137.634 628.8C137.804 628.8 137.97 628.784 138.13 628.752C138.29 628.709 138.45 628.661 138.61 628.608L138.866 629.824C138.706 629.92 138.482 629.995 138.194 630.048C137.916 630.112 137.65 630.144 137.394 630.144ZM143.271 630.144C142.471 630.144 141.778 629.979 141.191 629.648C140.615 629.307 140.167 628.832 139.847 628.224C139.527 627.605 139.367 626.88 139.367 626.048C139.367 624.811 139.719 623.835 140.423 623.12C141.127 622.405 142.077 622.048 143.271 622.048C143.762 622.048 144.247 622.133 144.727 622.304C145.207 622.475 145.602 622.709 145.911 623.008L145.399 624.144C145.101 623.867 144.77 623.664 144.407 623.536C144.055 623.397 143.719 623.328 143.399 623.328C142.642 623.328 142.055 623.568 141.639 624.048C141.234 624.517 141.031 625.189 141.031 626.064C141.031 626.939 141.234 627.627 141.639 628.128C142.055 628.619 142.642 628.864 143.399 628.864C143.719 628.864 144.055 628.8 144.407 628.672C144.77 628.533 145.101 628.325 145.399 628.048L145.911 629.2C145.602 629.488 145.202 629.717 144.711 629.888C144.231 630.059 143.751 630.144 143.271 630.144ZM147.3 630V618.72H148.916V623.408C149.183 622.96 149.54 622.624 149.988 622.4C150.447 622.165 150.959 622.048 151.524 622.048C153.369 622.048 154.292 623.093 154.292 625.184V630H152.676V625.28C152.676 624.608 152.543 624.117 152.276 623.808C152.02 623.499 151.615 623.344 151.06 623.344C150.409 623.344 149.887 623.552 149.492 623.968C149.108 624.373 148.916 624.912 148.916 625.584V630H147.3ZM162.834 630L159.858 622.192H161.522L163.618 628.112L165.778 622.192H167.026L169.154 628.144L171.282 622.192H172.866L169.89 630H168.418L166.354 624.416L164.306 630H162.834ZM174.109 620.384V618.704H175.997V620.384H174.109ZM174.253 630V622.192H175.869V630H174.253ZM181.472 630.144C180.49 630.144 179.76 629.893 179.28 629.392C178.8 628.891 178.56 628.165 178.56 627.216V623.44H177.04V622.192H178.56V619.84H180.176V622.192H182.592V623.44H180.176V627.088C180.176 627.653 180.293 628.08 180.528 628.368C180.773 628.656 181.168 628.8 181.712 628.8C181.882 628.8 182.048 628.784 182.208 628.752C182.368 628.709 182.528 628.661 182.688 628.608L182.944 629.824C182.784 629.92 182.56 629.995 182.272 630.048C181.994 630.112 181.728 630.144 181.472 630.144ZM183.988 630V618.72H185.604V623.408C185.87 622.96 186.228 622.624 186.676 622.4C187.134 622.165 187.646 622.048 188.212 622.048C190.057 622.048 190.98 623.093 190.98 625.184V630H189.364V625.28C189.364 624.608 189.23 624.117 188.964 623.808C188.708 623.499 188.302 623.344 187.748 623.344C187.097 623.344 186.574 623.552 186.18 623.968C185.796 624.373 185.604 624.912 185.604 625.584V630H183.988ZM199.905 630.144C199.361 630.144 198.876 630.037 198.449 629.824C198.023 629.611 197.681 629.323 197.425 628.96C197.18 628.597 197.057 628.187 197.057 627.728C197.057 627.152 197.201 626.699 197.489 626.368C197.788 626.037 198.273 625.797 198.945 625.648C199.628 625.499 200.545 625.424 201.697 625.424H202.241V625.008C202.241 624.4 202.113 623.963 201.857 623.696C201.601 623.429 201.18 623.296 200.593 623.296C200.145 623.296 199.697 623.365 199.249 623.504C198.801 623.632 198.343 623.84 197.873 624.128L197.377 622.992C197.783 622.704 198.289 622.475 198.897 622.304C199.505 622.133 200.087 622.048 200.641 622.048C201.708 622.048 202.497 622.304 203.009 622.816C203.521 623.317 203.777 624.107 203.777 625.184V630H202.257V628.704C202.065 629.152 201.767 629.504 201.361 629.76C200.956 630.016 200.471 630.144 199.905 630.144ZM200.225 628.992C200.801 628.992 201.281 628.789 201.665 628.384C202.049 627.979 202.241 627.467 202.241 626.848V626.416H201.713C200.935 626.416 200.321 626.453 199.873 626.528C199.436 626.603 199.121 626.731 198.929 626.912C198.748 627.083 198.657 627.323 198.657 627.632C198.657 628.037 198.796 628.368 199.073 628.624C199.351 628.869 199.735 628.992 200.225 628.992ZM208.547 630.144C207.694 630.144 207.054 629.904 206.627 629.424C206.211 628.944 206.003 628.24 206.003 627.312V618.72H207.619V627.216C207.619 628.272 208.051 628.8 208.915 628.8C209.043 628.8 209.161 628.795 209.267 628.784C209.385 628.773 209.502 628.752 209.619 628.72L209.587 630.016C209.225 630.101 208.878 630.144 208.547 630.144ZM214.208 630.144C213.418 630.144 212.736 629.979 212.16 629.648C211.584 629.317 211.136 628.853 210.816 628.256C210.506 627.648 210.352 626.928 210.352 626.096C210.352 625.264 210.506 624.549 210.816 623.952C211.136 623.344 211.584 622.875 212.16 622.544C212.736 622.213 213.418 622.048 214.208 622.048C214.976 622.048 215.648 622.213 216.224 622.544C216.8 622.875 217.248 623.344 217.568 623.952C217.888 624.549 218.048 625.264 218.048 626.096C218.048 626.928 217.888 627.648 217.568 628.256C217.248 628.853 216.8 629.317 216.224 629.648C215.648 629.979 214.976 630.144 214.208 630.144ZM214.208 628.896C214.869 628.896 215.402 628.656 215.808 628.176C216.213 627.696 216.416 627.003 216.416 626.096C216.416 625.189 216.213 624.501 215.808 624.032C215.402 623.552 214.869 623.312 214.208 623.312C213.536 623.312 212.997 623.552 212.592 624.032C212.186 624.501 211.984 625.189 211.984 626.096C211.984 627.003 212.186 627.696 212.592 628.176C212.997 628.656 213.536 628.896 214.208 628.896ZM223.255 630.144C222.465 630.144 221.783 629.979 221.207 629.648C220.631 629.317 220.183 628.853 219.863 628.256C219.553 627.648 219.399 626.928 219.399 626.096C219.399 625.264 219.553 624.549 219.863 623.952C220.183 623.344 220.631 622.875 221.207 622.544C221.783 622.213 222.465 622.048 223.255 622.048C224.023 622.048 224.695 622.213 225.271 622.544C225.847 622.875 226.295 623.344 226.615 623.952C226.935 624.549 227.095 625.264 227.095 626.096C227.095 626.928 226.935 627.648 226.615 628.256C226.295 628.853 225.847 629.317 225.271 629.648C224.695 629.979 224.023 630.144 223.255 630.144ZM223.255 628.896C223.916 628.896 224.449 628.656 224.855 628.176C225.26 627.696 225.463 627.003 225.463 626.096C225.463 625.189 225.26 624.501 224.855 624.032C224.449 623.552 223.916 623.312 223.255 623.312C222.583 623.312 222.044 623.552 221.639 624.032C221.233 624.501 221.031 625.189 221.031 626.096C221.031 627.003 221.233 627.696 221.639 628.176C222.044 628.656 222.583 628.896 223.255 628.896ZM229.295 630V623.44H227.775V622.192H229.295V622.048C229.295 620.971 229.567 620.16 230.111 619.616C230.666 619.072 231.514 618.768 232.655 618.704L233.359 618.656L233.471 619.872L232.735 619.92C232.085 619.963 231.615 620.139 231.327 620.448C231.05 620.757 230.911 621.216 230.911 621.824V622.192H233.103V623.44H230.911V630H229.295ZM238.613 630V622.192H240.181V623.456C240.416 623.008 240.741 622.661 241.157 622.416C241.573 622.171 242.059 622.048 242.613 622.048C243.808 622.048 244.581 622.571 244.933 623.616C245.179 623.125 245.531 622.741 245.989 622.464C246.448 622.187 246.971 622.048 247.557 622.048C249.307 622.048 250.181 623.093 250.181 625.184V630H248.565V625.264C248.565 624.603 248.448 624.117 248.213 623.808C247.989 623.499 247.616 623.344 247.093 623.344C246.507 623.344 246.043 623.552 245.701 623.968C245.36 624.373 245.189 624.928 245.189 625.632V630H243.573V625.264C243.573 624.603 243.461 624.117 243.237 623.808C243.013 623.499 242.64 623.344 242.117 623.344C241.531 623.344 241.067 623.552 240.725 623.968C240.395 624.373 240.229 624.928 240.229 625.632V630H238.613ZM256.105 630.144C254.825 630.144 253.817 629.787 253.081 629.072C252.345 628.347 251.977 627.36 251.977 626.112C251.977 625.312 252.137 624.608 252.457 624C252.787 623.381 253.241 622.901 253.817 622.56C254.393 622.219 255.054 622.048 255.801 622.048C256.878 622.048 257.726 622.395 258.345 623.088C258.963 623.771 259.273 624.715 259.273 625.92V626.464H253.545C253.662 628.085 254.521 628.896 256.121 628.896C256.569 628.896 257.006 628.827 257.433 628.688C257.87 628.549 258.281 628.32 258.665 628L259.145 629.12C258.793 629.44 258.339 629.691 257.785 629.872C257.23 630.053 256.67 630.144 256.105 630.144ZM255.865 623.184C255.193 623.184 254.659 623.392 254.265 623.808C253.87 624.224 253.63 624.779 253.545 625.472H257.913C257.881 624.747 257.689 624.187 257.337 623.792C256.985 623.387 256.494 623.184 255.865 623.184ZM261.066 630V622.192H262.634V623.456C262.869 623.008 263.194 622.661 263.61 622.416C264.026 622.171 264.512 622.048 265.066 622.048C266.261 622.048 267.034 622.571 267.386 623.616C267.632 623.125 267.984 622.741 268.442 622.464C268.901 622.187 269.424 622.048 270.01 622.048C271.76 622.048 272.634 623.093 272.634 625.184V630H271.018V625.264C271.018 624.603 270.901 624.117 270.666 623.808C270.442 623.499 270.069 623.344 269.546 623.344C268.96 623.344 268.496 623.552 268.154 623.968C267.813 624.373 267.642 624.928 267.642 625.632V630H266.026V625.264C266.026 624.603 265.914 624.117 265.69 623.808C265.466 623.499 265.093 623.344 264.57 623.344C263.984 623.344 263.52 623.552 263.178 623.968C262.848 624.373 262.682 624.928 262.682 625.632V630H261.066ZM279.086 630.144C278.488 630.144 277.96 630.011 277.502 629.744C277.043 629.477 276.702 629.12 276.478 628.672V630H274.894V618.72H276.51V623.456C276.744 623.029 277.086 622.688 277.534 622.432C277.992 622.176 278.51 622.048 279.086 622.048C279.779 622.048 280.382 622.213 280.894 622.544C281.416 622.875 281.816 623.344 282.094 623.952C282.382 624.549 282.526 625.264 282.526 626.096C282.526 626.928 282.382 627.648 282.094 628.256C281.816 628.864 281.416 629.333 280.894 629.664C280.382 629.984 279.779 630.144 279.086 630.144ZM278.686 628.896C279.358 628.896 279.891 628.656 280.286 628.176C280.691 627.696 280.894 627.003 280.894 626.096C280.894 625.189 280.691 624.501 280.286 624.032C279.891 623.552 279.358 623.312 278.686 623.312C278.014 623.312 277.475 623.552 277.07 624.032C276.675 624.501 276.478 625.189 276.478 626.096C276.478 627.003 276.675 627.696 277.07 628.176C277.475 628.656 278.014 628.896 278.686 628.896ZM288.011 630.144C286.731 630.144 285.723 629.787 284.987 629.072C284.251 628.347 283.883 627.36 283.883 626.112C283.883 625.312 284.043 624.608 284.363 624C284.694 623.381 285.147 622.901 285.723 622.56C286.299 622.219 286.96 622.048 287.707 622.048C288.784 622.048 289.632 622.395 290.251 623.088C290.87 623.771 291.179 624.715 291.179 625.92V626.464H285.451C285.568 628.085 286.427 628.896 288.027 628.896C288.475 628.896 288.912 628.827 289.339 628.688C289.776 628.549 290.187 628.32 290.571 628L291.051 629.12C290.699 629.44 290.246 629.691 289.691 629.872C289.136 630.053 288.576 630.144 288.011 630.144ZM287.771 623.184C287.099 623.184 286.566 623.392 286.171 623.808C285.776 624.224 285.536 624.779 285.451 625.472H289.819C289.787 624.747 289.595 624.187 289.243 623.792C288.891 623.387 288.4 623.184 287.771 623.184ZM292.941 630V622.192H294.509V623.584C294.914 622.656 295.757 622.139 297.037 622.032L297.565 622L297.677 623.376L296.701 623.472C295.282 623.611 294.573 624.341 294.573 625.664V630H292.941ZM301.567 630.144C300.927 630.144 300.33 630.064 299.775 629.904C299.221 629.733 298.757 629.499 298.383 629.2L298.847 628.112C299.242 628.389 299.674 628.603 300.143 628.752C300.623 628.901 301.103 628.976 301.583 628.976C302.149 628.976 302.575 628.875 302.863 628.672C303.151 628.469 303.295 628.197 303.295 627.856C303.295 627.579 303.199 627.365 303.007 627.216C302.815 627.056 302.527 626.933 302.143 626.848L300.623 626.544C299.279 626.267 298.607 625.573 298.607 624.464C298.607 623.728 298.901 623.141 299.487 622.704C300.074 622.267 300.842 622.048 301.791 622.048C302.335 622.048 302.853 622.128 303.343 622.288C303.845 622.448 304.261 622.688 304.591 623.008L304.127 624.096C303.807 623.819 303.439 623.605 303.023 623.456C302.607 623.307 302.197 623.232 301.791 623.232C301.237 623.232 300.815 623.339 300.527 623.552C300.239 623.755 300.095 624.032 300.095 624.384C300.095 624.917 300.447 625.259 301.151 625.408L302.671 625.712C303.365 625.851 303.887 626.085 304.239 626.416C304.602 626.747 304.783 627.195 304.783 627.76C304.783 628.507 304.49 629.093 303.903 629.52C303.317 629.936 302.538 630.144 301.567 630.144ZM306.311 630V628.096H308.215V630H306.311Z" fill="white" fill-opacity="0.75"/>
<path d="M131 771.443L244.998 772.101" stroke="white" stroke-width="4" stroke-linecap="round"/>
</g>
<defs>
<clipPath id="clip0_805_2233">
<rect width="375" height="812" rx="32" fill="white"/>
</clipPath>
</defs>
</svg>
